 0
SECTION
 2
ENTITIES
  0
POLYLINE
 8
Group#12
 66
     1
70
    8
 10
0.0
 20
 0.0
 30
0.0
  0
VERTEX
  8
MY3DLAYER
10
144.264109979708
20
67.7968185047852
30
-9.88177939668996e-013
 70
     32
  0
VERTEX
  8
MY3DLAYER
10
145.0
20
64.0
30
-6.67241797311899e-016
 70
     32
  0
VERTEX
  8
MY3DLAYER
10
145.298876282299
20
61.6782746069673
30
5.91390361822802e-013
 70
     32
  0
VERTEX
  8
MY3DLAYER
10
145.543632555984
20
59.3502217297186
30
1.07623918205679e-012
 70
     32
  0
VERTEX
  8
MY3DLAYER
10
145.734136208018
20
57.0171027461826
30
1.45361651971658e-012
 70
     32
  0
VERTEX
  8
MY3DLAYER
10
145.87028402034
20
54.6801817791891
30
1.72331790545827e-012
 70
     32
  0
VERTEX
  8
MY3DLAYER
10
145.952002225792
20
52.3407250115459
30
1.88519721056684e-012
 70
     32
  0
VERTEX
  8
MY3DLAYER
10
145.979246548085
20
50.0
30
1.93916672613129e-012
 70
     32
  0
VERTEX
  8
MY3DLAYER
10
145.952002225792
20
47.659274988454
30
1.88519721056684e-012
 70
     32
  0
VERTEX
  8
MY3DLAYER
10
145.87028402034
20
45.3198182208108
30
1.72331790545822e-012
 70
     32
  0
VERTEX
  8
MY3DLAYER
10
145.734136208018
20
42.9828972538173
30
1.45361651971658e-012
 70
     32
  0
VERTEX
  8
MY3DLAYER
10
145.543632555984
20
40.6497782702814
30
1.07623918205679e-012
 70
     32
  0
VERTEX
  8
MY3DLAYER
10
145.298876282299
20
38.3217253930327
30
5.91390361822761e-013
 70
     32
  0
VERTEX
  8
MY3DLAYER
10
145.0
20
36.0
30
-6.672417973119e-016
 70
     32
  0
VERTEX
  8
MY3DLAYER
10
144.264109979708
20
32.2031814952148
30
-9.88665082810173e-013
 70
     32
  0
VERTEX
  8
MY3DLAYER
10
143.139673929552
20
28.5027749703379
30
-1.81186447628861e-012
 70
     32
  0
VERTEX
  8
MY3DLAYER
10
141.638739815136
20
24.9384290746052
30
-2.46144510917138e-012
 70
     32
  0
VERTEX
  8
MY3DLAYER
10
139.777389656052
20
21.5483346119798
30
-2.93044693680111e-012
 70
     32
  0
VERTEX
  8
MY3DLAYER
10
137.575567212281
20
18.3688153391413
30
-3.21384475753314e-012
 70
     32
  0
VERTEX
  8
MY3DLAYER
10
135.056864293308
20
15.4339387682781
30
-3.30860205613248e-012
 70
     32
  0
VERTEX
  8
MY3DLAYER
10
132.248267979578
20
12.775151144803
30
-3.21370353904438e-012
 70
     32
  0
VERTEX
  8
MY3DLAYER
10
129.179871464727
20
10.4209405110884
30
-2.93016601293365e-012
 70
     32
  0
VERTEX
  8
MY3DLAYER
10
125.884551616828
20
8.39653146638209
30
-2.46102748993285e-012
 70
     32
  0
VERTEX
  8
MY3DLAYER
10
122.39761671347
20
6.72361489345169
30
-1.81131463633296e-012
 70
     32
  0
VERTEX
  8
MY3DLAYER
10
118.756428125075
20
5.42011554784909
30
-9.87988913493237e-013
 70
     32
  0
VERTEX
  8
MY3DLAYER
10
115.0
20
4.49999999999988
30
1.28011947170139e-016
 70
     32
  0
VERTEX
  8
MY3DLAYER
10
111.073018002502
20
3.78303848459845
30
1.04289596273425e-012
 70
     32
  0
VERTEX
  8
MY3DLAYER
10
107.13526219277
20
3.1278281319877
30
1.96908419171114e-012
 70
     32
  0
VERTEX
  8
MY3DLAYER
10
103.187703536267
20
2.53453050287706
30
2.77846432088178e-012
 70
     32
  0
VERTEX
  8
MY3DLAYER
10
99.2313154156232
20
2.00329189163672
30
3.47083677460247e-012
 70
     32
  0
VERTEX
  8
MY3DLAYER
10
95.2670733906256
20
1.5342432902246
30
4.04603082879288e-012
 70
     32
  0
VERTEX
  8
MY3DLAYER
10
91.2959549576637
20
1.12750035588653
30
4.50390465303305e-012
 70
     32
  0
VERTEX
  8
MY3DLAYER
10
87.3189393087007
20
0.783163382637666
30
4.84434534553571e-012
 70
     32
  0
VERTEX
  8
MY3DLAYER
10
83.3370070898254
20
0.501317276532218
30
5.06726896098527e-012
 70
     32
  0
VERTEX
  8
MY3DLAYER
10
79.3511401594469
20
0.282031534727327
30
5.17262053123694e-012
 70
     32
  0
VERTEX
  8
MY3DLAYER
10
75.362321346189
20
0.125360228346714
30
5.16037407887102e-012
 70
     32
  0
VERTEX
  8
MY3DLAYER
10
71.3715342065458
20
0.0313419891477533
30
5.03053262359781e-012
 70
     32
  0
VERTEX
  8
MY3DLAYER
10
67.3797627823583
20
-4.04947186893878e-012
30
4.78312818151346e-012
 70
     32
  0
VERTEX
  8
MY3DLAYER
10
5.0
20
0.0
30
-1.18967335982489e-015
 70
     32
  0
VERTEX
  8
MY3DLAYER
10
4.34736903889975
20
0.0427756931309508
30
-1.18967335982489e-015
 70
     32
  0
VERTEX
  8
MY3DLAYER
10
3.7059047744874
20
0.170370868554659
30
-1.18967335982489e-015
 70
     32
  0
VERTEX
  8
MY3DLAYER
10
3.08658283817455
20
0.380602337443563
30
-1.18967335982489e-015
 70
     32
  0
VERTEX
  8
MY3DLAYER
10
2.50000000000001
20
0.669872981077806
30
-1.18967335982489e-015
 70
     32
  0
VERTEX
  8
MY3DLAYER
10
1.9561928549564
20
1.03323329854383
30
-1.18967335982489e-015
 70
     32
  0
VERTEX
  8
MY3DLAYER
10
1.46446609406727
20
1.46446609406726
30
-1.18967335982489e-015
 70
     32
  0
VERTEX
  8
MY3DLAYER
10
1.03323329854383
20
1.9561928549564
30
-1.18967335982489e-015
 70
     32
  0
VERTEX
  8
MY3DLAYER
10
0.669872981077812
20
2.50000000000001
30
-1.18967335982489e-015
 70
     32
  0
VERTEX
  8
MY3DLAYER
10
0.380602337443563
20
3.08658283817456
30
-1.18967335982489e-015
 70
     32
  0
VERTEX
  8
MY3DLAYER
10
0.170370868554664
20
3.7059047744874
30
-1.18967335982489e-015
 70
     32
  0
VERTEX
  8
MY3DLAYER
10
0.0427756931309508
20
4.34736903889975
30
-1.18967335982489e-015
 70
     32
  0
VERTEX
  8
MY3DLAYER
10
0.0
20
5.00000000000001
30
-1.18967335982489e-015
 70
     32
  0
VERTEX
  8
MY3DLAYER
10
0.0
20
23.0
30
-2.95215241141733e-015
 70
     32
  0
VERTEX
  8
MY3DLAYER
10
0.0427756931309508
20
23.6526309611003
30
-2.95215241141733e-015
 70
     32
  0
VERTEX
  8
MY3DLAYER
10
0.170370868554664
20
24.2940952255126
30
-3.30464822173582e-015
 70
     32
  0
VERTEX
  8
MY3DLAYER
10
0.380602337443575
20
24.9134171618255
30
-3.30464822173582e-015
 70
     32
  0
VERTEX
  8
MY3DLAYER
10
0.669872981077812
20
25.5
30
-3.30464822173582e-015
 70
     32
  0
VERTEX
  8
MY3DLAYER
10
1.03323329854383
20
26.0438071450436
30
-3.6571440320543e-015
 70
     32
  0
VERTEX
  8
MY3DLAYER
10
1.46446609406727
20
26.5355339059327
30
-3.6571440320543e-015
 70
     32
  0
VERTEX
  8
MY3DLAYER
10
1.9561928549564
20
26.9667667014562
30
-3.6571440320543e-015
 70
     32
  0
VERTEX
  8
MY3DLAYER
10
2.50000000000001
20
27.3301270189222
30
-3.6571440320543e-015
 70
     32
  0
VERTEX
  8
MY3DLAYER
10
3.08658283817455
20
27.6193976625565
30
-4.00963984237279e-015
 70
     32
  0
VERTEX
  8
MY3DLAYER
10
3.7059047744874
20
27.8296291314454
30
-4.00963984237279e-015
 70
     32
  0
VERTEX
  8
MY3DLAYER
10
4.34736903889974
20
27.9572243068691
30
-4.00963984237279e-015
 70
     32
  0
VERTEX
  8
MY3DLAYER
10
5.0
20
28.0
30
-4.00963984237279e-015
 70
     32
  0
VERTEX
  8
MY3DLAYER
10
7.87157622884114
20
28.1882130497762
30
-4.00963984237279e-015
 70
     32
  0
VERTEX
  8
MY3DLAYER
10
10.6940189922555
20
28.7496318216405
30
-4.00963984237279e-015
 70
     32
  0
VERTEX
  8
MY3DLAYER
10
13.419035512032
20
29.6746502847517
30
-4.00963984237279e-015
 70
     32
  0
VERTEX
  8
MY3DLAYER
10
16.0
20
30.9474411167424
30
-4.00963984237279e-015
 70
     32
  0
VERTEX
  8
MY3DLAYER
10
18.3927514381919
20
32.5462265135928
30
-4.00963984237279e-015
 70
     32
  0
VERTEX
  8
MY3DLAYER
10
20.5563491861041
20
34.443650813896
30
-4.00963984237279e-015
 70
     32
  0
VERTEX
  8
MY3DLAYER
10
22.4537734864072
20
36.6072485618082
30
-4.00963984237279e-015
 70
     32
  0
VERTEX
  8
MY3DLAYER
10
24.0525588832577
20
39.0
30
-4.00963984237279e-015
 70
     32
  0
VERTEX
  8
MY3DLAYER
10
25.3253497152483
20
41.5809644879681
30
-4.00963984237279e-015
 70
     32
  0
VERTEX
  8
MY3DLAYER
10
26.2503681783595
20
44.3059810077446
30
-4.00963984237279e-015
 70
     32
  0
VERTEX
  8
MY3DLAYER
10
26.8117869502238
20
47.1284237711589
30
-4.00963984237279e-015
 70
     32
  0
VERTEX
  8
MY3DLAYER
10
26.9213478446217
20
48.8
30
-4.89087936816901e-015
 70
     32
  0
VERTEX
  8
MY3DLAYER
10
50.9213478446217
20
48.8
30
-4.89087936816901e-015
 70
     32
  0
VERTEX
  8
MY3DLAYER
10
50.9213478446217
20
51.2
30
-4.89087936816901e-015
 70
     32
  0
VERTEX
  8
MY3DLAYER
10
26.9213478446217
20
51.2
30
-4.89087936816901e-015
 70
     32
  0
VERTEX
  8
MY3DLAYER
10
26.8117869502238
20
52.8715762288412
30
-4.00963984237279e-015
 70
     32
  0
VERTEX
  8
MY3DLAYER
10
26.2503681783595
20
55.6940189922555
30
-4.00963984237279e-015
 70
     32
  0
VERTEX
  8
MY3DLAYER
10
25.3253497152483
20
58.419035512032
30
-4.00963984237279e-015
 70
     32
  0
VERTEX
  8
MY3DLAYER
10
24.0525588832576
20
61.0
30
-4.00963984237279e-015
 70
     32
  0
VERTEX
  8
MY3DLAYER
10
22.4537734864072
20
63.3927514381919
30
-4.00963984237279e-015
 70
     32
  0
VERTEX
  8
MY3DLAYER
10
20.5563491861041
20
65.5563491861041
30
-4.00963984237279e-015
 70
     32
  0
VERTEX
  8
MY3DLAYER
10
18.3927514381919
20
67.4537734864072
30
-4.00963984237279e-015
 70
     32
  0
VERTEX
  8
MY3DLAYER
10
16.0
20
69.0525588832577
30
-4.00963984237279e-015
 70
     32
  0
VERTEX
  8
MY3DLAYER
10
13.419035512032
20
70.3253497152483
30
-4.00963984237279e-015
 70
     32
  0
VERTEX
  8
MY3DLAYER
10
10.6940189922555
20
71.2503681783595
30
-4.00963984237279e-015
 70
     32
  0
VERTEX
  8
MY3DLAYER
10
7.87157622884115
20
71.8117869502239
30
-4.00963984237279e-015
 70
     32
  0
VERTEX
  8
MY3DLAYER
10
4.99999999999999
20
72.0000000000001
30
-4.00963984237279e-015
 70
     32
  0
VERTEX
  8
MY3DLAYER
10
4.34736903889973
20
72.042775693131
30
-4.00963984237279e-015
 70
     32
  0
VERTEX
  8
MY3DLAYER
10
3.70590477448739
20
72.1703708685547
30
-4.00963984237279e-015
 70
     32
  0
VERTEX
  8
MY3DLAYER
10
3.08658283817454
20
72.3806023374436
30
-4.00963984237279e-015
 70
     32
  0
VERTEX
  8
MY3DLAYER
10
2.49999999999998
20
72.6698729810778
30
-3.6571440320543e-015
 70
     32
  0
VERTEX
  8
MY3DLAYER
10
1.95619285495639
20
73.0332332985439
30
-3.6571440320543e-015
 70
     32
  0
VERTEX
  8
MY3DLAYER
10
1.46446609406726
20
73.4644660940673
30
-3.6571440320543e-015
 70
     32
  0
VERTEX
  8
MY3DLAYER
10
1.03323329854382
20
73.9561928549565
30
-3.6571440320543e-015
 70
     32
  0
VERTEX
  8
MY3DLAYER
10
0.669872981077801
20
74.5
30
-3.30464822173582e-015
 70
     32
  0
VERTEX
  8
MY3DLAYER
10
0.380602337443563
20
75.0865828381746
30
-3.30464822173582e-015
 70
     32
  0
VERTEX
  8
MY3DLAYER
10
0.170370868554653
20
75.7059047744874
30
-3.30464822173582e-015
 70
     32
  0
VERTEX
  8
MY3DLAYER
10
0.0427756931309508
20
76.3473690388998
30
-3.30464822173582e-015
 70
     32
  0
VERTEX
  8
MY3DLAYER
10
0.0
20
77.0000000000001
30
-2.95215241141733e-015
 70
     32
  0
VERTEX
  8
MY3DLAYER
10
0.0
20
95.0
30
-1.18967335982489e-015
 70
     32
  0
VERTEX
  8
MY3DLAYER
10
0.0427756931309508
20
95.6526309611002
30
-1.18967335982489e-015
 70
     32
  0
VERTEX
  8
MY3DLAYER
10
0.170370868554653
20
96.2940952255126
30
-1.18967335982489e-015
 70
     32
  0
VERTEX
  8
MY3DLAYER
10
0.380602337443563
20
96.9134171618255
30
-1.18967335982489e-015
 70
     32
  0
VERTEX
  8
MY3DLAYER
10
0.669872981077812
20
97.5
30
-1.18967335982489e-015
 70
     32
  0
VERTEX
  8
MY3DLAYER
10
1.03323329854383
20
98.0438071450436
30
-1.18967335982489e-015
 70
     32
  0
VERTEX
  8
MY3DLAYER
10
1.46446609406727
20
98.5355339059327
30
-1.18967335982489e-015
 70
     32
  0
VERTEX
  8
MY3DLAYER
10
1.9561928549564
20
98.9667667014562
30
-1.18967335982489e-015
 70
     32
  0
VERTEX
  8
MY3DLAYER
10
2.50000000000001
20
99.3301270189222
30
-1.18967335982489e-015
 70
     32
  0
VERTEX
  8
MY3DLAYER
10
3.08658283817455
20
99.6193976625564
30
-1.18967335982489e-015
 70
     32
  0
VERTEX
  8
MY3DLAYER
10
3.7059047744874
20
99.8296291314453
30
-1.18967335982489e-015
 70
     32
  0
VERTEX
  8
MY3DLAYER
10
4.34736903889975
20
99.9572243068691
30
-1.18967335982489e-015
 70
     32
  0
VERTEX
  8
MY3DLAYER
10
5.0
20
100.0
30
-1.18967335982489e-015
 70
     32
  0
VERTEX
  8
MY3DLAYER
10
67.3797627823583
20
100.000000000004
30
4.78288346686528e-012
 70
     32
  0
VERTEX
  8
MY3DLAYER
10
71.3715342065458
20
99.9686580108522
30
5.03104051732949e-012
 70
     32
  0
VERTEX
  8
MY3DLAYER
10
75.3623213461891
20
99.8746397716533
30
5.16075897552669e-012
 70
     32
  0
VERTEX
  8
MY3DLAYER
10
79.351140159447
20
99.7179684652726
30
5.17203884145689e-012
 70
     32
  0
VERTEX
  8
MY3DLAYER
10
83.3370070898254
20
99.4986827234678
30
5.06770008160261e-012
 70
     32
  0
VERTEX
  8
MY3DLAYER
10
87.3189393087007
20
99.2168366173623
30
4.84492272948133e-012
 70
     32
  0
VERTEX
  8
MY3DLAYER
10
91.2959549576637
20
98.8724996441134
30
4.50370678509303e-012
 70
     32
  0
VERTEX
  8
MY3DLAYER
10
95.2670733906257
20
98.4657567097754
30
4.045462231679e-012
 70
     32
  0
VERTEX
  8
MY3DLAYER
10
99.2313154156232
20
97.9967081083633
30
3.47018906923923e-012
 70
     32
  0
VERTEX
  8
MY3DLAYER
10
103.187703536267
20
97.4654694971229
30
2.77788729777372e-012
 70
     32
  0
VERTEX
  8
MY3DLAYER
10
107.13526219277
20
96.8721718680123
30
1.96855691728247e-012
 70
     32
  0
VERTEX
  8
MY3DLAYER
10
111.073018002502
20
96.2169615154015
30
1.04219792776549e-012
 70
     32
  0
VERTEX
  8
MY3DLAYER
10
115.0
20
95.5000000000001
30
2.20312464041687e-016
 70
     32
  0
VERTEX
  8
MY3DLAYER
10
118.756428125075
20
94.5798844521509
30
-9.88177939668996e-013
 70
     32
  0
VERTEX
  8
MY3DLAYER
10
122.39761671347
20
93.2763851065483
30
-1.81160815257298e-012
 70
     32
  0
VERTEX
  8
MY3DLAYER
10
125.884551616828
20
91.6034685336179
30
-2.46161042680027e-012
 70
     32
  0
VERTEX
  8
MY3DLAYER
10
129.179871464727
20
89.5790594889116
30
-2.92972486290322e-012
 70
     32
  0
VERTEX
  8
MY3DLAYER
10
132.248267979578
20
87.224848855197
30
-3.21313149439929e-012
 70
     32
  0
VERTEX
  8
MY3DLAYER
10
135.056864293308
20
84.5660612317219
30
-3.30901035480592e-012
 70
     32
  0
VERTEX
  8
MY3DLAYER
10
137.575567212281
20
81.6311846608587
30
-3.21454147764056e-012
 70
     32
  0
VERTEX
  8
MY3DLAYER
10
139.777389656052
20
78.4516653880202
30
-2.9311348461445e-012
 70
     32
  0
VERTEX
  8
MY3DLAYER
10
141.638739815136
20
75.0615709253948
30
-2.46161042680027e-012
 70
     32
  0
VERTEX
  8
MY3DLAYER
10
143.139673929552
20
71.4972250296621
30
-1.81160815257298e-012
 70
     32
  0
VERTEX
  8
MY3DLAYER
10
144.264109979708
20
67.7968185047852
30
-9.88177939668996e-013
 70
     32
  0
SEQEND
 0
ENDSEC
 0
EOF
