 0
SECTION
 2
ENTITIES
  0
POLYLINE
 8
Layer0
 66
     1
70
    8
 10
0.0
 20
 0.0
 30
0.0
  0
VERTEX
  8
MY3DLAYER
10
96.8536718418692
20
91.1000471659768
30
1.00185334963068e-029
 70
     32
  0
VERTEX
  8
MY3DLAYER
10
96.8536718418692
20
9.0
30
1.00185334963068e-029
 70
     32
  0
VERTEX
  8
MY3DLAYER
10
96.7157768929848
20
7.97862857691533
30
1.00185334963068e-029
 70
     32
  0
VERTEX
  8
MY3DLAYER
10
96.4591984641829
20
6.98043916067438
30
1.00185334963068e-029
 70
     32
  0
VERTEX
  8
MY3DLAYER
10
96.0874687898792
20
6.01917351057347
30
1.00185334963068e-029
 70
     32
  0
VERTEX
  8
MY3DLAYER
10
95.6057053554171
20
5.10806506805024
30
1.00185334963068e-029
 70
     32
  0
VERTEX
  8
MY3DLAYER
10
95.020540446259
20
4.25965677606349
30
1.00185334963068e-029
 70
     32
  0
VERTEX
  8
MY3DLAYER
10
94.3400298434015
20
3.4856284043481
30
1.00185334963068e-029
 70
     32
  0
VERTEX
  8
MY3DLAYER
10
93.5735419219755
20
2.79663575770381
30
1.00185334963068e-029
 70
     32
  0
VERTEX
  8
MY3DLAYER
10
92.7316286797766
20
2.20216398088677
30
1.00185334963068e-029
 70
     32
  0
VERTEX
  8
MY3DLAYER
10
91.825880471235
20
1.71039697960922
30
1.00185334963068e-029
 70
     32
  0
VERTEX
  8
MY3DLAYER
10
90.8687664466565
20
1.32810475528722
30
1.00185334963068e-029
 70
     32
  0
VERTEX
  8
MY3DLAYER
10
89.8734628933579
20
1.06055020456341
30
1.00185334963068e-029
 70
     32
  0
VERTEX
  8
MY3DLAYER
10
88.8536718418692
20
0.911416666666681
30
1.00185334963068e-029
 70
     32
  0
VERTEX
  8
MY3DLAYER
10
87.3729718418692
20
0.783000000000017
30
1.00185334963068e-029
 70
     32
  0
VERTEX
  8
MY3DLAYER
10
83.3909718418692
20
0.501000000000001
30
1.00185334963068e-029
 70
     32
  0
VERTEX
  8
MY3DLAYER
10
79.4039718418693
20
0.281999999999994
30
1.00185334963068e-029
 70
     32
  0
VERTEX
  8
MY3DLAYER
10
75.4139718418693
20
0.124999999999994
30
1.00185334963068e-029
 70
     32
  0
VERTEX
  8
MY3DLAYER
10
71.4229718418693
20
0.0310000000000038
30
1.00185334963068e-029
 70
     32
  0
VERTEX
  8
MY3DLAYER
10
67.4299718418692
20
0.0
30
1.00185334963068e-029
 70
     32
  0
VERTEX
  8
MY3DLAYER
10
32.8536718418692
20
1.40998324127395e-015
30
1.00185334963068e-029
 70
     32
  0
VERTEX
  8
MY3DLAYER
10
32.0705146885489
20
0.0513308317571394
30
1.00185334963068e-029
 70
     32
  0
VERTEX
  8
MY3DLAYER
10
31.3007575712541
20
0.204445042265591
30
1.00185334963068e-029
 70
     32
  0
VERTEX
  8
MY3DLAYER
10
30.5575712476787
20
0.456722804932281
30
1.00185334963068e-029
 70
     32
  0
VERTEX
  8
MY3DLAYER
10
29.8536718418692
20
0.803847577293369
30
1.00185334963068e-029
 70
     32
  0
VERTEX
  8
MY3DLAYER
10
29.2011032678169
20
1.23987995825259
30
1.00185334963068e-029
 70
     32
  0
VERTEX
  8
MY3DLAYER
10
28.61103115475
20
1.75735931288072
30
1.00185334963068e-029
 70
     32
  0
VERTEX
  8
MY3DLAYER
10
28.0935518001218
20
2.34743142594768
30
1.00185334963068e-029
 70
     32
  0
VERTEX
  8
MY3DLAYER
10
27.6575194191626
20
3.0
30
1.00185334963068e-029
 70
     32
  0
VERTEX
  8
MY3DLAYER
10
27.3103946468015
20
3.70389940580946
30
1.00185334963068e-029
 70
     32
  0
VERTEX
  8
MY3DLAYER
10
27.0581168841348
20
4.44708572938488
30
1.00185334963068e-029
 70
     32
  0
VERTEX
  8
MY3DLAYER
10
26.9050026736264
20
5.21684284667969
30
1.00185334963068e-029
 70
     32
  0
VERTEX
  8
MY3DLAYER
10
26.8536718418692
20
6.0
30
1.00185334963068e-029
 70
     32
  0
VERTEX
  8
MY3DLAYER
10
26.8536718418692
20
94.099934956463
30
1.00185334963068e-029
 70
     32
  0
VERTEX
  8
MY3DLAYER
10
26.9050026512931
20
94.8830925705399
30
1.00185334963068e-029
 70
     32
  0
VERTEX
  8
MY3DLAYER
10
27.0581167969737
20
95.652850168018
30
1.00185334963068e-029
 70
     32
  0
VERTEX
  8
MY3DLAYER
10
27.3103944587668
20
96.3960370098304
30
1.00185334963068e-029
 70
     32
  0
VERTEX
  8
MY3DLAYER
10
27.6575191047319
20
97.0999369889797
30
1.00185334963068e-029
 70
     32
  0
VERTEX
  8
MY3DLAYER
10
28.0935513480403
20
97.7525062062112
30
1.00185334963068e-029
 70
     32
  0
VERTEX
  8
MY3DLAYER
10
28.6110305713234
20
98.3425790440483
30
1.00185334963068e-029
 70
     32
  0
VERTEX
  8
MY3DLAYER
10
29.201102579644
20
98.8600592132134
30
1.00185334963068e-029
 70
     32
  0
VERTEX
  8
MY3DLAYER
10
29.8536710979181
20
99.2960925025852
30
1.00185334963068e-029
 70
     32
  0
VERTEX
  8
MY3DLAYER
10
30.5575705206281
20
99.6432182768966
30
1.00185334963068e-029
 70
     32
  0
VERTEX
  8
MY3DLAYER
10
31.3007569580401
20
99.8954971300127
30
1.00185334963068e-029
 70
     32
  0
VERTEX
  8
MY3DLAYER
10
32.0705143100763
20
100.048612509609
30
1.00185334963068e-029
 70
     32
  0
VERTEX
  8
MY3DLAYER
10
32.8536718418692
20
100.099944574429
30
1.00185334963068e-029
 70
     32
  0
VERTEX
  8
MY3DLAYER
10
67.4299718418692
20
100.1
30
1.00185334963068e-029
 70
     32
  0
VERTEX
  8
MY3DLAYER
10
71.4219718418693
20
100.0687
30
1.00185334963068e-029
 70
     32
  0
VERTEX
  8
MY3DLAYER
10
75.4129718418693
20
99.9746
30
1.00185334963068e-029
 70
     32
  0
VERTEX
  8
MY3DLAYER
10
79.4029718418692
20
99.8179
30
1.00185334963068e-029
 70
     32
  0
VERTEX
  8
MY3DLAYER
10
83.3899718418692
20
99.5986
30
1.00185334963068e-029
 70
     32
  0
VERTEX
  8
MY3DLAYER
10
87.3719718418692
20
99.3167
30
1.00185334963068e-029
 70
     32
  0
VERTEX
  8
MY3DLAYER
10
88.8536718418692
20
99.1884200904977
30
1.00185334963068e-029
 70
     32
  0
VERTEX
  8
MY3DLAYER
10
89.8735037461271
20
99.0394246489349
30
1.00185334963068e-029
 70
     32
  0
VERTEX
  8
MY3DLAYER
10
90.8688579531281
20
98.7719797814315
30
1.00185334963068e-029
 70
     32
  0
VERTEX
  8
MY3DLAYER
10
91.8260264221093
20
98.3897687447817
30
1.00185334963068e-029
 70
     32
  0
VERTEX
  8
MY3DLAYER
10
92.7318270071593
20
97.8980553580698
30
1.00185334963068e-029
 70
     32
  0
VERTEX
  8
MY3DLAYER
10
93.5737850020322
20
97.3036115092343
30
1.00185334963068e-029
 70
     32
  0
VERTEX
  8
MY3DLAYER
10
94.3403049420848
20
96.6146238924731
30
1.00185334963068e-029
 70
     32
  0
VERTEX
  8
MY3DLAYER
10
95.0208302972799
20
95.8405812609047
30
1.00185334963068e-029
 70
     32
  0
VERTEX
  8
MY3DLAYER
10
95.6059888569573
20
94.9921437472452
30
1.00185334963068e-029
 70
     32
  0
VERTEX
  8
MY3DLAYER
10
96.0877218041327
20
94.0809960522174
30
1.00185334963068e-029
 70
     32
  0
VERTEX
  8
MY3DLAYER
10
96.4593947017077
20
93.1196865225877
30
1.00185334963068e-029
 70
     32
  0
VERTEX
  8
MY3DLAYER
10
96.7158888620888
20
92.1214543350487
30
1.00185334963068e-029
 70
     32
  0
VERTEX
  8
MY3DLAYER
10
96.8536718418692
20
91.1000471659768
30
1.00185334963068e-029
 70
     32
  0
SEQEND
  0
LINE
 8
Layer0
10
40.6525718418693
20
21.635
30
1.00185334963068e-029
11
40.6316718418693
21
21.65
31
1.00185334963068e-029
  0
LINE
 8
Layer0
10
48.4175718418693
20
21.689
30
1.00185334963068e-029
11
48.4113718418693
21
21.664
31
1.00185334963068e-029
  0
LINE
 8
Layer0
10
48.4113718418693
20
21.664
30
1.00185334963068e-029
11
48.3961718418693
21
21.643
31
1.00185334963068e-029
  0
LINE
 8
Layer0
10
48.3961718418693
20
21.643
30
1.00185334963068e-029
11
48.3729718418692
21
21.631
31
1.00185334963068e-029
  0
LINE
 8
Layer0
10
40.6775718418693
20
21.629
30
1.00185334963068e-029
11
40.6525718418693
21
21.635
31
1.00185334963068e-029
  0
LINE
 8
Layer0
10
40.6316718418693
20
21.65
30
1.00185334963068e-029
11
40.6202718418692
21
21.673
31
1.00185334963068e-029
  0
LINE
 8
Layer0
10
48.3875718418693
20
26.941
30
1.00185334963068e-029
11
48.4061718418693
21
26.923
31
1.00185334963068e-029
  0
LINE
 8
Layer0
10
48.4061718418693
20
26.923
30
1.00185334963068e-029
11
48.4166718418692
21
26.899
31
1.00185334963068e-029
  0
LINE
 8
Layer0
10
48.3729718418692
20
21.631
30
1.00185334963068e-029
11
40.6775718418693
21
21.629
31
1.00185334963068e-029
  0
LINE
 8
Layer0
10
40.6202718418692
20
21.673
30
1.00185334963068e-029
11
40.6175718418693
21
24.229
31
1.00185334963068e-029
  0
LINE
 8
Layer0
10
40.6175718418693
20
24.229
30
1.00185334963068e-029
11
38.0775718418693
21
24.229
31
1.00185334963068e-029
  0
LINE
 8
Layer0
10
38.0775718418693
20
24.229
30
1.00185334963068e-029
11
38.0525718418693
21
24.235
31
1.00185334963068e-029
  0
LINE
 8
Layer0
10
38.0316718418692
20
24.25
30
1.00185334963068e-029
11
38.0202718418692
21
24.273
31
1.00185334963068e-029
  0
LINE
 8
Layer0
10
38.0525718418693
20
24.235
30
1.00185334963068e-029
11
38.0316718418692
21
24.25
31
1.00185334963068e-029
  0
LINE
 8
Layer0
10
38.0202718418692
20
24.273
30
1.00185334963068e-029
11
38.0175718418692
21
26.889
31
1.00185334963068e-029
  0
LINE
 8
Layer0
10
48.4166718418692
20
26.899
30
1.00185334963068e-029
11
48.4175718418693
21
21.689
31
1.00185334963068e-029
  0
LINE
 8
Layer0
10
48.3627718418693
20
26.948
30
1.00185334963068e-029
11
48.3875718418693
21
26.941
31
1.00185334963068e-029
  0
LINE
 8
Layer0
10
39.4075718418693
20
21.749
30
1.00185334963068e-029
11
39.4461718418693
21
21.735
31
1.00185334963068e-029
  0
LINE
 8
Layer0
10
39.4281718418693
20
21.632
30
1.00185334963068e-029
11
38.0775718418693
21
21.629
31
1.00185334963068e-029
  0
LINE
 8
Layer0
10
38.1375718418693
20
24.349
30
1.00185334963068e-029
11
40.6775718418693
21
24.349
31
1.00185334963068e-029
  0
LINE
 8
Layer0
10
71.8519718418693
20
24.478
30
1.00185334963068e-029
11
71.8789718418693
21
24.446
31
1.00185334963068e-029
  0
LINE
 8
Layer0
10
38.0622718418693
20
26.946
30
1.00185334963068e-029
11
48.3627718418693
21
26.948
31
1.00185334963068e-029
  0
LINE
 8
Layer0
10
38.1375718418693
20
21.749
30
1.00185334963068e-029
11
39.4075718418693
21
21.749
31
1.00185334963068e-029
  0
LINE
 8
Layer0
10
71.8789718418693
20
24.446
30
1.00185334963068e-029
11
71.8819718418693
21
23.096
31
1.00185334963068e-029
  0
LINE
 8
Layer0
10
40.7235718418693
20
24.327
30
1.00185334963068e-029
11
40.7348718418693
21
24.304
31
1.00185334963068e-029
  0
LINE
 8
Layer0
10
38.0175718418692
20
26.889
30
1.00185334963068e-029
11
38.0238718418693
21
26.914
31
1.00185334963068e-029
  0
LINE
 8
Layer0
10
38.0390718418693
20
26.935
30
1.00185334963068e-029
11
38.0622718418693
21
26.946
31
1.00185334963068e-029
  0
LINE
 8
Layer0
10
38.1075718418693
20
23.071
30
1.00185334963068e-029
11
38.1339718418692
21
23.039
31
1.00185334963068e-029
  0
LINE
 8
Layer0
10
38.1375718418693
20
26.829
30
1.00185334963068e-029
11
38.1375718418693
21
24.349
31
1.00185334963068e-029
  0
LINE
 8
Layer0
10
40.6775718418693
20
24.349
30
1.00185334963068e-029
11
40.7026718418693
21
24.342
31
1.00185334963068e-029
  0
LINE
 8
Layer0
10
38.0238718418693
20
26.914
30
1.00185334963068e-029
11
38.0390718418693
21
26.935
31
1.00185334963068e-029
  0
LINE
 8
Layer0
10
48.2975718418692
20
21.749
30
1.00185334963068e-029
11
48.2975718418692
21
26.829
31
1.00185334963068e-029
  0
LINE
 8
Layer0
10
39.4461718418693
20
21.735
30
1.00185334963068e-029
11
39.4666718418693
21
21.699
31
1.00185334963068e-029
  0
LINE
 8
Layer0
10
38.0525718418693
20
21.635
30
1.00185334963068e-029
11
38.0316718418692
21
21.65
31
1.00185334963068e-029
  0
LINE
 8
Layer0
10
71.8819718418693
20
23.096
30
1.00185334963068e-029
11
71.8759718418693
21
23.071
31
1.00185334963068e-029
  0
LINE
 8
Layer0
10
71.8759718418693
20
23.071
30
1.00185334963068e-029
11
71.8609718418693
21
23.05
31
1.00185334963068e-029
  0
LINE
 8
Layer0
10
38.1339718418692
20
23.039
30
1.00185334963068e-029
11
38.1375718418693
21
21.749
31
1.00185334963068e-029
  0
LINE
 8
Layer0
10
38.0775718418693
20
21.629
30
1.00185334963068e-029
11
38.0525718418693
21
21.635
31
1.00185334963068e-029
  0
LINE
 8
Layer0
10
38.0316718418692
20
21.65
30
1.00185334963068e-029
11
38.0202718418692
21
21.673
31
1.00185334963068e-029
  0
LINE
 8
Layer0
10
40.7026718418693
20
24.342
30
1.00185334963068e-029
11
40.7235718418693
21
24.327
31
1.00185334963068e-029
  0
LINE
 8
Layer0
10
39.4666718418693
20
21.699
30
1.00185334963068e-029
11
39.4595718418693
21
21.659
31
1.00185334963068e-029
  0
LINE
 8
Layer0
10
38.0175718418692
20
23.019
30
1.00185334963068e-029
11
38.0316718418692
21
23.057
31
1.00185334963068e-029
  0
LINE
 8
Layer0
10
38.0671718418693
20
23.078
30
1.00185334963068e-029
11
38.1075718418693
21
23.071
31
1.00185334963068e-029
  0
LINE
 8
Layer0
10
40.7348718418693
20
24.304
30
1.00185334963068e-029
11
40.7375718418692
21
21.749
31
1.00185334963068e-029
  0
LINE
 8
Layer0
10
40.7375718418692
20
21.749
30
1.00185334963068e-029
11
48.2975718418692
21
21.749
31
1.00185334963068e-029
  0
LINE
 8
Layer0
10
39.4595718418693
20
21.659
30
1.00185334963068e-029
11
39.4281718418693
21
21.632
31
1.00185334963068e-029
  0
LINE
 8
Layer0
10
38.0202718418692
20
21.673
30
1.00185334963068e-029
11
38.0175718418692
21
23.019
31
1.00185334963068e-029
  0
LINE
 8
Layer0
10
48.2975718418692
20
26.829
30
1.00185334963068e-029
11
38.1375718418693
21
26.829
31
1.00185334963068e-029
  0
LINE
 8
Layer0
10
38.0316718418692
20
23.057
30
1.00185334963068e-029
11
38.0671718418693
21
23.078
31
1.00185334963068e-029
  0
LINE
 8
Layer0
10
71.8609718418693
20
25.65
30
1.00185334963068e-029
11
71.8379718418693
21
25.639
31
1.00185334963068e-029
  0
LINE
 8
Layer0
10
70.4399718418693
20
23.126
30
1.00185334963068e-029
11
70.4719718418692
21
23.152
31
1.00185334963068e-029
  0
LINE
 8
Layer0
10
69.1159718418693
20
25.657
30
1.00185334963068e-029
11
69.1049718418692
21
25.68
31
1.00185334963068e-029
  0
LINE
 8
Layer0
10
71.8379718418693
20
25.639
30
1.00185334963068e-029
11
69.1619718418692
21
25.636
31
1.00185334963068e-029
  0
LINE
 8
Layer0
10
69.1239718418693
20
28.342
30
1.00185334963068e-029
11
69.1469718418693
21
28.353
31
1.00185334963068e-029
  0
LINE
 8
Layer0
10
70.4719718418692
20
23.152
30
1.00185334963068e-029
11
71.7619718418693
21
23.156
31
1.00185334963068e-029
  0
LINE
 8
Layer0
10
69.1469718418693
20
28.353
30
1.00185334963068e-029
11
71.8269718418693
21
28.355
31
1.00185334963068e-029
  0
LINE
 8
Layer0
10
70.4539718418692
20
23.05
30
1.00185334963068e-029
11
70.4329718418693
21
23.085
31
1.00185334963068e-029
  0
LINE
 8
Layer0
10
69.2219718418692
20
28.236
30
1.00185334963068e-029
11
69.2219718418692
21
25.756
31
1.00185334963068e-029
  0
LINE
 8
Layer0
10
71.7619718418693
20
25.756
30
1.00185334963068e-029
11
71.7619718418693
21
28.236
31
1.00185334963068e-029
  0
LINE
 8
Layer0
10
69.1019718418692
20
28.296
30
1.00185334963068e-029
11
69.1079718418692
21
28.321
31
1.00185334963068e-029
  0
LINE
 8
Layer0
10
71.7619718418693
20
24.426
30
1.00185334963068e-029
11
71.7759718418693
21
24.464
31
1.00185334963068e-029
  0
LINE
 8
Layer0
10
71.8709718418693
20
28.33
30
1.00185334963068e-029
11
71.8809718418693
21
28.306
31
1.00185334963068e-029
  0
LINE
 8
Layer0
10
70.4329718418693
20
23.085
30
1.00185334963068e-029
11
70.4399718418693
21
23.126
31
1.00185334963068e-029
  0
LINE
 8
Layer0
10
69.1079718418692
20
28.321
30
1.00185334963068e-029
11
69.1239718418693
21
28.342
31
1.00185334963068e-029
  0
LINE
 8
Layer0
10
38.0872718418693
20
32.347
30
1.00185334963068e-029
11
38.1136718418693
21
32.315
31
1.00185334963068e-029
  0
LINE
 8
Layer0
10
71.8809718418693
20
28.306
30
1.00185334963068e-029
11
71.8819718418693
21
25.696
31
1.00185334963068e-029
  0
LINE
 8
Layer0
10
69.2219718418692
20
25.756
30
1.00185334963068e-029
11
71.7619718418693
21
25.756
31
1.00185334963068e-029
  0
LINE
 8
Layer0
10
71.8759718418693
20
25.671
30
1.00185334963068e-029
11
71.8609718418693
21
25.65
31
1.00185334963068e-029
  0
LINE
 8
Layer0
10
69.1619718418692
20
25.636
30
1.00185334963068e-029
11
69.1369718418692
21
25.642
31
1.00185334963068e-029
  0
LINE
 8
Layer0
10
71.7619718418693
20
28.236
30
1.00185334963068e-029
11
69.2219718418692
21
28.236
31
1.00185334963068e-029
  0
LINE
 8
Layer0
10
71.8519718418693
20
28.348
30
1.00185334963068e-029
11
71.8709718418693
21
28.33
31
1.00185334963068e-029
  0
LINE
 8
Layer0
10
71.8379718418693
20
23.039
30
1.00185334963068e-029
11
70.4919718418693
21
23.036
31
1.00185334963068e-029
  0
LINE
 8
Layer0
10
69.1369718418692
20
25.642
30
1.00185334963068e-029
11
69.1159718418693
21
25.657
31
1.00185334963068e-029
  0
LINE
 8
Layer0
10
71.7619718418693
20
23.156
30
1.00185334963068e-029
11
71.7619718418693
21
24.426
31
1.00185334963068e-029
  0
LINE
 8
Layer0
10
69.1049718418692
20
25.68
30
1.00185334963068e-029
11
69.1019718418692
21
28.296
31
1.00185334963068e-029
  0
LINE
 8
Layer0
10
71.8819718418693
20
25.696
30
1.00185334963068e-029
11
71.8759718418693
21
25.671
31
1.00185334963068e-029
  0
LINE
 8
Layer0
10
70.4919718418693
20
23.036
30
1.00185334963068e-029
11
70.4539718418692
21
23.05
31
1.00185334963068e-029
  0
LINE
 8
Layer0
10
71.7759718418693
20
24.464
30
1.00185334963068e-029
11
71.8119718418693
21
24.485
31
1.00185334963068e-029
  0
LINE
 8
Layer0
10
71.8119718418693
20
24.485
30
1.00185334963068e-029
11
71.8519718418693
21
24.478
31
1.00185334963068e-029
  0
LINE
 8
Layer0
10
71.8609718418693
20
23.05
30
1.00185334963068e-029
11
71.8379718418693
21
23.039
31
1.00185334963068e-029
  0
LINE
 8
Layer0
10
71.8269718418693
20
28.355
30
1.00185334963068e-029
11
71.8519718418693
21
28.348
31
1.00185334963068e-029
  0
LINE
 8
Layer0
10
38.1136718418693
20
32.315
30
1.00185334963068e-029
11
38.1172718418693
21
31.025
31
1.00185334963068e-029
  0
LINE
 8
Layer0
10
39.4077718418693
20
30.908
30
1.00185334963068e-029
11
38.0572718418693
21
30.905
31
1.00185334963068e-029
  0
LINE
 8
Layer0
10
48.3672718418693
20
36.217
30
1.00185334963068e-029
11
48.3858718418693
21
36.199
31
1.00185334963068e-029
  0
LINE
 8
Layer0
10
38.0113718418693
20
30.926
30
1.00185334963068e-029
11
37.9999718418693
21
30.949
31
1.00185334963068e-029
  0
LINE
 8
Layer0
10
48.3963718418693
20
36.175
30
1.00185334963068e-029
11
48.3972718418692
21
30.965
31
1.00185334963068e-029
  0
LINE
 8
Layer0
10
48.3910718418693
20
30.94
30
1.00185334963068e-029
11
48.3758718418692
21
30.919
31
1.00185334963068e-029
  0
LINE
 8
Layer0
10
39.4392718418693
20
30.935
30
1.00185334963068e-029
11
39.4077718418693
21
30.908
31
1.00185334963068e-029
  0
LINE
 8
Layer0
10
38.0468718418693
20
32.354
30
1.00185334963068e-029
11
38.0872718418693
21
32.347
31
1.00185334963068e-029
  0
LINE
 8
Layer0
10
48.3758718418692
20
30.919
30
1.00185334963068e-029
11
48.3526718418693
21
30.907
31
1.00185334963068e-029
  0
LINE
 8
Layer0
10
40.6322718418693
20
30.911
30
1.00185334963068e-029
11
40.6113718418693
21
30.926
31
1.00185334963068e-029
  0
LINE
 8
Layer0
10
40.6113718418693
20
30.926
30
1.00185334963068e-029
11
40.5999718418693
21
30.949
31
1.00185334963068e-029
  0
LINE
 8
Layer0
10
37.9999718418693
20
30.949
30
1.00185334963068e-029
11
37.9972718418693
21
32.295
31
1.00185334963068e-029
  0
LINE
 8
Layer0
10
48.3858718418693
20
36.199
30
1.00185334963068e-029
11
48.3963718418693
21
36.175
31
1.00185334963068e-029
  0
LINE
 8
Layer0
10
40.5999718418693
20
30.949
30
1.00185334963068e-029
11
40.5972718418693
21
33.505
31
1.00185334963068e-029
  0
LINE
 8
Layer0
10
48.3526718418693
20
30.907
30
1.00185334963068e-029
11
40.6572718418693
21
30.905
31
1.00185334963068e-029
  0
LINE
 8
Layer0
10
39.4258718418693
20
31.011
30
1.00185334963068e-029
11
39.4463718418693
21
30.975
31
1.00185334963068e-029
  0
LINE
 8
Layer0
10
40.6572718418693
20
30.905
30
1.00185334963068e-029
11
40.6322718418693
21
30.911
31
1.00185334963068e-029
  0
LINE
 8
Layer0
10
38.0572718418693
20
33.505
30
1.00185334963068e-029
11
38.0322718418693
21
33.511
31
1.00185334963068e-029
  0
LINE
 8
Layer0
10
40.5972718418693
20
33.505
30
1.00185334963068e-029
11
38.0572718418693
21
33.505
31
1.00185334963068e-029
  0
LINE
 8
Layer0
10
38.0322718418693
20
33.511
30
1.00185334963068e-029
11
38.0113718418693
21
33.526
31
1.00185334963068e-029
  0
LINE
 8
Layer0
10
37.9972718418693
20
32.295
30
1.00185334963068e-029
11
38.0113718418693
21
32.333
31
1.00185334963068e-029
  0
LINE
 8
Layer0
10
38.0113718418693
20
32.333
30
1.00185334963068e-029
11
38.0468718418693
21
32.354
31
1.00185334963068e-029
  0
LINE
 8
Layer0
10
39.3872718418693
20
31.025
30
1.00185334963068e-029
11
39.4258718418693
21
31.011
31
1.00185334963068e-029
  0
LINE
 8
Layer0
10
48.3972718418692
20
30.965
30
1.00185334963068e-029
11
48.3910718418693
21
30.94
31
1.00185334963068e-029
  0
LINE
 8
Layer0
10
38.0113718418693
20
33.526
30
1.00185334963068e-029
11
37.9999718418693
21
33.549
31
1.00185334963068e-029
  0
LINE
 8
Layer0
10
38.0572718418693
20
30.905
30
1.00185334963068e-029
11
38.0322718418693
21
30.911
31
1.00185334963068e-029
  0
LINE
 8
Layer0
10
37.9999718418693
20
33.549
30
1.00185334963068e-029
11
37.9972718418693
21
36.165
31
1.00185334963068e-029
  0
LINE
 8
Layer0
10
48.3424718418692
20
36.224
30
1.00185334963068e-029
11
48.3672718418693
21
36.217
31
1.00185334963068e-029
  0
LINE
 8
Layer0
10
37.9972718418693
20
36.165
30
1.00185334963068e-029
11
38.0035718418693
21
36.19
31
1.00185334963068e-029
  0
LINE
 8
Layer0
10
38.0322718418693
20
30.911
30
1.00185334963068e-029
11
38.0113718418693
21
30.926
31
1.00185334963068e-029
  0
LINE
 8
Layer0
10
38.1172718418693
20
31.025
30
1.00185334963068e-029
11
39.3872718418693
21
31.025
31
1.00185334963068e-029
  0
LINE
 8
Layer0
10
39.4463718418693
20
30.975
30
1.00185334963068e-029
11
39.4392718418693
21
30.935
31
1.00185334963068e-029
  0
LINE
 8
Layer0
10
75.0359718418693
20
69.3134
30
1.00185334963068e-029
11
75.0129718418693
21
69.3021
31
1.00185334963068e-029
  0
LINE
 8
Layer0
10
75.0509718418693
20
69.3343
30
1.00185334963068e-029
11
75.0359718418693
21
69.3134
31
1.00185334963068e-029
  0
LINE
 8
Layer0
10
73.6669718418693
20
69.2994
30
1.00185334963068e-029
11
73.6289718418693
21
69.3134
31
1.00185334963068e-029
  0
LINE
 8
Layer0
10
74.9369718418693
20
69.4194
30
1.00185334963068e-029
11
74.9369718418693
21
70.6894
31
1.00185334963068e-029
  0
LINE
 8
Layer0
10
74.9369718418693
20
70.6894
30
1.00185334963068e-029
11
74.9509718418693
21
70.7279
31
1.00185334963068e-029
  0
LINE
 8
Layer0
10
74.9869718418693
20
70.7484
30
1.00185334963068e-029
11
75.0269718418693
21
70.7413
31
1.00185334963068e-029
  0
LINE
 8
Layer0
10
75.0019718418693
20
74.6184
30
1.00185334963068e-029
11
75.0269718418693
21
74.6113
31
1.00185334963068e-029
  0
LINE
 8
Layer0
10
75.0559718418693
20
74.5698
30
1.00185334963068e-029
11
75.0569718418693
21
71.9594
31
1.00185334963068e-029
  0
LINE
 8
Layer0
10
75.0129718418693
20
69.3021
30
1.00185334963068e-029
11
73.6669718418693
21
69.2994
31
1.00185334963068e-029
  0
LINE
 8
Layer0
10
74.9509718418693
20
70.7279
30
1.00185334963068e-029
11
74.9869718418693
21
70.7484
31
1.00185334963068e-029
  0
LINE
 8
Layer0
10
75.0269718418693
20
70.7413
30
1.00185334963068e-029
11
75.0539718418693
21
70.7099
31
1.00185334963068e-029
  0
LINE
 8
Layer0
10
75.0569718418693
20
71.9594
30
1.00185334963068e-029
11
75.0509718418693
21
71.9343
31
1.00185334963068e-029
  0
LINE
 8
Layer0
10
38.0187718418693
20
36.211
30
1.00185334963068e-029
11
38.0419718418692
21
36.222
31
1.00185334963068e-029
  0
LINE
 8
Layer0
10
73.6079718418693
20
69.3489
30
1.00185334963068e-029
11
73.6149718418693
21
69.3894
31
1.00185334963068e-029
  0
LINE
 8
Layer0
10
48.2772718418693
20
36.105
30
1.00185334963068e-029
11
38.1172718418693
21
36.105
31
1.00185334963068e-029
  0
LINE
 8
Layer0
10
38.0035718418693
20
36.19
30
1.00185334963068e-029
11
38.0187718418693
21
36.211
31
1.00185334963068e-029
  0
LINE
 8
Layer0
10
73.6289718418693
20
69.3134
30
1.00185334963068e-029
11
73.6079718418693
21
69.3489
31
1.00185334963068e-029
  0
LINE
 8
Layer0
10
73.6149718418693
20
69.3894
30
1.00185334963068e-029
11
73.6469718418692
21
69.4157
31
1.00185334963068e-029
  0
LINE
 8
Layer0
10
75.0269718418693
20
74.6113
30
1.00185334963068e-029
11
75.0459718418692
21
74.5934
31
1.00185334963068e-029
  0
LINE
 8
Layer0
10
40.6823718418692
20
33.618
30
1.00185334963068e-029
11
40.7032718418693
21
33.603
31
1.00185334963068e-029
  0
LINE
 8
Layer0
10
75.0459718418692
20
74.5934
30
1.00185334963068e-029
11
75.0559718418693
21
74.5698
31
1.00185334963068e-029
  0
LINE
 8
Layer0
10
75.0569718418693
20
69.3594
30
1.00185334963068e-029
11
75.0509718418693
21
69.3343
31
1.00185334963068e-029
  0
LINE
 8
Layer0
10
40.7145718418693
20
33.58
30
1.00185334963068e-029
11
40.7172718418692
21
31.025
31
1.00185334963068e-029
  0
LINE
 8
Layer0
10
40.7172718418692
20
31.025
30
1.00185334963068e-029
11
48.2772718418693
21
31.025
31
1.00185334963068e-029
  0
LINE
 8
Layer0
10
73.6469718418692
20
69.4157
30
1.00185334963068e-029
11
74.9369718418693
21
69.4194
31
1.00185334963068e-029
  0
LINE
 8
Layer0
10
38.1172718418693
20
33.625
30
1.00185334963068e-029
11
40.6572718418693
21
33.625
31
1.00185334963068e-029
  0
LINE
 8
Layer0
10
40.7032718418693
20
33.603
30
1.00185334963068e-029
11
40.7145718418693
21
33.58
31
1.00185334963068e-029
  0
LINE
 8
Layer0
10
38.1172718418693
20
36.105
30
1.00185334963068e-029
11
38.1172718418693
21
33.625
31
1.00185334963068e-029
  0
LINE
 8
Layer0
10
38.0419718418692
20
36.222
30
1.00185334963068e-029
11
48.3424718418692
21
36.224
31
1.00185334963068e-029
  0
LINE
 8
Layer0
10
40.6572718418693
20
33.625
30
1.00185334963068e-029
11
40.6823718418692
21
33.618
31
1.00185334963068e-029
  0
LINE
 8
Layer0
10
48.2772718418693
20
31.025
30
1.00185334963068e-029
11
48.2772718418693
21
36.105
31
1.00185334963068e-029
  0
LINE
 8
Layer0
10
75.0539718418693
20
70.7099
30
1.00185334963068e-029
11
75.0569718418693
21
69.3594
31
1.00185334963068e-029
  0
LINE
 8
Layer0
10
74.9369718418693
20
74.4994
30
1.00185334963068e-029
11
72.3969718418693
21
74.4994
31
1.00185334963068e-029
  0
LINE
 8
Layer0
10
72.2909718418693
20
71.9208
30
1.00185334963068e-029
11
72.2799718418693
21
71.944
31
1.00185334963068e-029
  0
LINE
 8
Layer0
10
72.3969718418693
20
72.0194
30
1.00185334963068e-029
11
74.9369718418693
21
72.0194
31
1.00185334963068e-029
  0
LINE
 8
Layer0
10
72.3369718418693
20
71.8994
30
1.00185334963068e-029
11
72.3119718418693
21
71.9056
31
1.00185334963068e-029
  0
LINE
 8
Layer0
10
75.0359718418693
20
71.9134
30
1.00185334963068e-029
11
75.0129718418693
21
71.9021
31
1.00185334963068e-029
  0
LINE
 8
Layer0
10
72.2829718418693
20
74.5844
30
1.00185334963068e-029
11
72.2989718418693
21
74.6053
31
1.00185334963068e-029
  0
LINE
 8
Layer0
10
72.2769718418693
20
74.5594
30
1.00185334963068e-029
11
72.2829718418693
21
74.5844
31
1.00185334963068e-029
  0
LINE
 8
Layer0
10
75.0129718418693
20
71.9021
30
1.00185334963068e-029
11
72.3369718418693
21
71.8994
31
1.00185334963068e-029
  0
LINE
 8
Layer0
10
72.2799718418693
20
71.944
30
1.00185334963068e-029
11
72.2769718418693
21
74.5594
31
1.00185334963068e-029
  0
LINE
 8
Layer0
10
72.3119718418693
20
71.9056
30
1.00185334963068e-029
11
72.2909718418693
21
71.9208
31
1.00185334963068e-029
  0
LINE
 8
Layer0
10
72.2989718418693
20
74.6053
30
1.00185334963068e-029
11
72.3219718418693
21
74.6167
31
1.00185334963068e-029
  0
LINE
 8
Layer0
10
72.3219718418693
20
74.6167
30
1.00185334963068e-029
11
75.0019718418693
21
74.6184
31
1.00185334963068e-029
  0
LINE
 8
Layer0
10
74.9369718418693
20
72.0194
30
1.00185334963068e-029
11
74.9369718418693
21
74.4994
31
1.00185334963068e-029
  0
LINE
 8
Layer0
10
75.0509718418693
20
71.9343
30
1.00185334963068e-029
11
75.0359718418693
21
71.9134
31
1.00185334963068e-029
  0
LINE
 8
Layer0
10
72.3969718418693
20
74.4994
30
1.00185334963068e-029
11
72.3969718418693
21
72.0194
31
1.00185334963068e-029
  0
LINE
 8
LoliBot-F.Cu.dxf
10
39.5122718418693
20
35.675
30
1.00185334963068e-029
11
39.8122718418692
21
35.574
31
1.00185334963068e-029
  0
LINE
 8
LoliBot-F.Cu.dxf
10
39.8122718418692
20
35.574
30
1.00185334963068e-029
11
40.0384718418693
21
35.384
31
1.00185334963068e-029
  0
LINE
 8
LoliBot-F.Cu.dxf
10
40.0384718418693
20
35.384
30
1.00185334963068e-029
11
40.1860718418692
21
35.129
31
1.00185334963068e-029
  0
LINE
 8
LoliBot-F.Cu.dxf
10
40.1860718418692
20
35.129
30
1.00185334963068e-029
11
40.2372718418692
21
34.838
31
1.00185334963068e-029
  0
LINE
 8
LoliBot-F.Cu.dxf
10
40.2372718418692
20
34.838
30
1.00185334963068e-029
11
40.1860718418692
21
34.541
31
1.00185334963068e-029
  0
LINE
 8
LoliBot-F.Cu.dxf
10
40.1860718418692
20
34.541
30
1.00185334963068e-029
11
40.0384718418693
21
34.285
31
1.00185334963068e-029
  0
LINE
 8
LoliBot-F.Cu.dxf
10
40.0384718418693
20
34.285
30
1.00185334963068e-029
11
39.8122718418692
21
34.095
31
1.00185334963068e-029
  0
LINE
 8
LoliBot-F.Cu.dxf
10
39.8122718418692
20
34.095
30
1.00185334963068e-029
11
39.5348718418692
21
33.994
31
1.00185334963068e-029
  0
LINE
 8
LoliBot-F.Cu.dxf
10
39.5348718418692
20
33.994
30
1.00185334963068e-029
11
39.2396718418693
21
33.994
31
1.00185334963068e-029
  0
LINE
 8
LoliBot-F.Cu.dxf
10
39.2396718418693
20
33.994
30
1.00185334963068e-029
11
38.9622718418693
21
34.095
31
1.00185334963068e-029
  0
LINE
 8
LoliBot-F.Cu.dxf
10
38.9622718418693
20
34.095
30
1.00185334963068e-029
11
38.7361718418692
21
34.285
31
1.00185334963068e-029
  0
LINE
 8
LoliBot-F.Cu.dxf
10
38.7361718418692
20
34.285
30
1.00185334963068e-029
11
38.5885718418693
21
34.541
31
1.00185334963068e-029
  0
LINE
 8
LoliBot-F.Cu.dxf
10
38.5885718418693
20
34.541
30
1.00185334963068e-029
11
38.5372718418692
21
34.831
31
1.00185334963068e-029
  0
LINE
 8
LoliBot-F.Cu.dxf
10
38.5372718418692
20
34.831
30
1.00185334963068e-029
11
38.5885718418693
21
35.129
31
1.00185334963068e-029
  0
LINE
 8
LoliBot-F.Cu.dxf
10
38.5885718418693
20
35.129
30
1.00185334963068e-029
11
38.7361718418692
21
35.384
31
1.00185334963068e-029
  0
LINE
 8
LoliBot-F.Cu.dxf
10
38.7361718418692
20
35.384
30
1.00185334963068e-029
11
38.9622718418693
21
35.574
31
1.00185334963068e-029
  0
LINE
 8
LoliBot-F.Cu.dxf
10
38.9622718418693
20
35.574
30
1.00185334963068e-029
11
39.2396718418693
21
35.675
31
1.00185334963068e-029
  0
LINE
 8
LoliBot-F.Cu.dxf
10
44.6176718418693
20
35.674
30
1.00185334963068e-029
11
44.8922718418692
21
35.574
31
1.00185334963068e-029
  0
LINE
 8
LoliBot-F.Cu.dxf
10
44.8922718418692
20
35.574
30
1.00185334963068e-029
11
45.1184718418693
21
35.384
31
1.00185334963068e-029
  0
LINE
 8
LoliBot-F.Cu.dxf
10
45.1184718418693
20
35.384
30
1.00185334963068e-029
11
45.2660718418692
21
35.129
31
1.00185334963068e-029
  0
LINE
 8
LoliBot-F.Cu.dxf
10
45.2660718418692
20
35.129
30
1.00185334963068e-029
11
45.3172718418693
21
34.838
31
1.00185334963068e-029
  0
LINE
 8
LoliBot-F.Cu.dxf
10
45.3172718418693
20
34.838
30
1.00185334963068e-029
11
45.2660718418692
21
34.541
31
1.00185334963068e-029
  0
LINE
 8
LoliBot-F.Cu.dxf
10
45.2660718418692
20
34.541
30
1.00185334963068e-029
11
45.1184718418693
21
34.285
31
1.00185334963068e-029
  0
LINE
 8
LoliBot-F.Cu.dxf
10
45.1184718418693
20
34.285
30
1.00185334963068e-029
11
44.8922718418692
21
34.095
31
1.00185334963068e-029
  0
LINE
 8
LoliBot-F.Cu.dxf
10
44.8922718418692
20
34.095
30
1.00185334963068e-029
11
44.6148718418692
21
33.994
31
1.00185334963068e-029
  0
LINE
 8
LoliBot-F.Cu.dxf
10
44.6148718418692
20
33.994
30
1.00185334963068e-029
11
44.3196718418693
21
33.994
31
1.00185334963068e-029
  0
LINE
 8
LoliBot-F.Cu.dxf
10
44.3196718418693
20
33.994
30
1.00185334963068e-029
11
44.0422718418693
21
34.095
31
1.00185334963068e-029
  0
LINE
 8
LoliBot-F.Cu.dxf
10
44.0422718418693
20
34.095
30
1.00185334963068e-029
11
43.8161718418692
21
34.285
31
1.00185334963068e-029
  0
LINE
 8
LoliBot-F.Cu.dxf
10
43.8161718418692
20
34.285
30
1.00185334963068e-029
11
43.6685718418693
21
34.541
31
1.00185334963068e-029
  0
LINE
 8
LoliBot-F.Cu.dxf
10
43.6685718418693
20
34.541
30
1.00185334963068e-029
11
43.6172718418693
21
34.831
31
1.00185334963068e-029
  0
LINE
 8
LoliBot-F.Cu.dxf
10
43.6172718418693
20
34.831
30
1.00185334963068e-029
11
43.6685718418693
21
35.129
31
1.00185334963068e-029
  0
LINE
 8
LoliBot-F.Cu.dxf
10
43.6685718418693
20
35.129
30
1.00185334963068e-029
11
43.8161718418692
21
35.384
31
1.00185334963068e-029
  0
LINE
 8
LoliBot-F.Cu.dxf
10
43.8161718418692
20
35.384
30
1.00185334963068e-029
11
44.0422718418693
21
35.574
31
1.00185334963068e-029
  0
LINE
 8
LoliBot-F.Cu.dxf
10
44.0422718418693
20
35.574
30
1.00185334963068e-029
11
44.3196718418693
21
35.675
31
1.00185334963068e-029
  0
LINE
 8
LoliBot-F.Cu.dxf
10
44.3196718418693
20
35.675
30
1.00185334963068e-029
11
44.3676718418693
21
35.675
31
1.00185334963068e-029
  0
LINE
 8
LoliBot-F.Cu.dxf
10
47.4322718418693
20
35.574
30
1.00185334963068e-029
11
47.6584718418693
21
35.384
31
1.00185334963068e-029
  0
LINE
 8
LoliBot-F.Cu.dxf
10
47.6584718418693
20
35.384
30
1.00185334963068e-029
11
47.8060718418692
21
35.129
31
1.00185334963068e-029
  0
LINE
 8
LoliBot-F.Cu.dxf
10
47.8060718418692
20
35.129
30
1.00185334963068e-029
11
47.8572718418692
21
34.838
31
1.00185334963068e-029
  0
LINE
 8
LoliBot-F.Cu.dxf
10
47.8572718418692
20
34.838
30
1.00185334963068e-029
11
47.8060718418692
21
34.541
31
1.00185334963068e-029
  0
LINE
 8
LoliBot-F.Cu.dxf
10
47.8060718418692
20
34.541
30
1.00185334963068e-029
11
47.7101718418692
21
34.375
31
1.00185334963068e-029
  0
LINE
 8
LoliBot-F.Cu.dxf
10
47.5429718418692
20
34.188
30
1.00185334963068e-029
11
47.4322718418693
21
34.095
31
1.00185334963068e-029
  0
LINE
 8
LoliBot-F.Cu.dxf
10
47.4322718418693
20
34.095
30
1.00185334963068e-029
11
47.1548718418693
21
33.994
31
1.00185334963068e-029
  0
LINE
 8
LoliBot-F.Cu.dxf
10
47.1548718418693
20
33.994
30
1.00185334963068e-029
11
46.8596718418692
21
33.994
31
1.00185334963068e-029
  0
LINE
 8
LoliBot-F.Cu.dxf
10
46.8596718418692
20
33.994
30
1.00185334963068e-029
11
46.5822718418692
21
34.095
31
1.00185334963068e-029
  0
LINE
 8
LoliBot-F.Cu.dxf
10
46.5822718418692
20
34.095
30
1.00185334963068e-029
11
46.3561718418692
21
34.285
31
1.00185334963068e-029
  0
LINE
 8
LoliBot-F.Cu.dxf
10
46.3561718418692
20
34.285
30
1.00185334963068e-029
11
46.2085718418693
21
34.541
31
1.00185334963068e-029
  0
LINE
 8
LoliBot-F.Cu.dxf
10
46.2085718418693
20
34.541
30
1.00185334963068e-029
11
46.1572718418692
21
34.831
31
1.00185334963068e-029
  0
LINE
 8
LoliBot-F.Cu.dxf
10
46.1572718418692
20
34.831
30
1.00185334963068e-029
11
46.2085718418693
21
35.129
31
1.00185334963068e-029
  0
LINE
 8
LoliBot-F.Cu.dxf
10
46.2085718418693
20
35.129
30
1.00185334963068e-029
11
46.3561718418692
21
35.384
31
1.00185334963068e-029
  0
LINE
 8
LoliBot-F.Cu.dxf
10
46.3561718418692
20
35.384
30
1.00185334963068e-029
11
46.5822718418692
21
35.574
31
1.00185334963068e-029
  0
LINE
 8
LoliBot-F.Cu.dxf
10
46.5822718418692
20
35.574
30
1.00185334963068e-029
11
46.8596718418692
21
35.675
31
1.00185334963068e-029
  0
LINE
 8
LoliBot-F.Cu.dxf
10
46.8596718418692
20
35.675
30
1.00185334963068e-029
11
47.1548718418693
21
35.675
31
1.00185334963068e-029
  0
LINE
 8
LoliBot-F.Cu.dxf
10
47.1548718418693
20
35.675
30
1.00185334963068e-029
11
47.4322718418693
21
35.574
31
1.00185334963068e-029
  0
LINE
 8
LoliBot-F.Cu.dxf
10
47.4322718418693
20
33.034
30
1.00185334963068e-029
11
47.6584718418693
21
32.844
31
1.00185334963068e-029
  0
LINE
 8
LoliBot-F.Cu.dxf
10
47.6584718418693
20
32.844
30
1.00185334963068e-029
11
47.8060718418692
21
32.589
31
1.00185334963068e-029
  0
LINE
 8
LoliBot-F.Cu.dxf
10
47.8060718418692
20
32.589
30
1.00185334963068e-029
11
47.8572718418692
21
32.298
31
1.00185334963068e-029
  0
LINE
 8
LoliBot-F.Cu.dxf
10
47.8572718418692
20
32.298
30
1.00185334963068e-029
11
47.8060718418692
21
32.001
31
1.00185334963068e-029
  0
LINE
 8
LoliBot-F.Cu.dxf
10
47.8060718418692
20
32.001
30
1.00185334963068e-029
11
47.6584718418693
21
31.745
31
1.00185334963068e-029
  0
LINE
 8
LoliBot-F.Cu.dxf
10
47.6584718418693
20
31.745
30
1.00185334963068e-029
11
47.4322718418693
21
31.555
31
1.00185334963068e-029
  0
LINE
 8
LoliBot-F.Cu.dxf
10
47.4322718418693
20
31.555
30
1.00185334963068e-029
11
47.1576718418692
21
31.455
31
1.00185334963068e-029
  0
LINE
 8
LoliBot-F.Cu.dxf
10
46.9076718418692
20
31.454
30
1.00185334963068e-029
11
46.8596718418692
21
31.454
31
1.00185334963068e-029
  0
LINE
 8
LoliBot-F.Cu.dxf
10
46.8596718418692
20
31.454
30
1.00185334963068e-029
11
46.5822718418692
21
31.555
31
1.00185334963068e-029
  0
LINE
 8
LoliBot-F.Cu.dxf
10
46.5822718418692
20
31.555
30
1.00185334963068e-029
11
46.3561718418692
21
31.745
31
1.00185334963068e-029
  0
LINE
 8
LoliBot-F.Cu.dxf
10
46.3561718418692
20
31.745
30
1.00185334963068e-029
11
46.2085718418693
21
32.001
31
1.00185334963068e-029
  0
LINE
 8
LoliBot-F.Cu.dxf
10
46.2085718418693
20
32.001
30
1.00185334963068e-029
11
46.1572718418692
21
32.291
31
1.00185334963068e-029
  0
LINE
 8
LoliBot-F.Cu.dxf
10
46.1572718418692
20
32.291
30
1.00185334963068e-029
11
46.2085718418693
21
32.589
31
1.00185334963068e-029
  0
LINE
 8
LoliBot-F.Cu.dxf
10
46.2085718418693
20
32.589
30
1.00185334963068e-029
11
46.3561718418692
21
32.844
31
1.00185334963068e-029
  0
LINE
 8
LoliBot-F.Cu.dxf
10
46.3561718418692
20
32.844
30
1.00185334963068e-029
11
46.5822718418692
21
33.034
31
1.00185334963068e-029
  0
LINE
 8
LoliBot-F.Cu.dxf
10
46.5822718418692
20
33.034
30
1.00185334963068e-029
11
46.8596718418692
21
33.135
31
1.00185334963068e-029
  0
LINE
 8
LoliBot-F.Cu.dxf
10
46.8596718418692
20
33.135
30
1.00185334963068e-029
11
47.1548718418693
21
33.135
31
1.00185334963068e-029
  0
LINE
 8
LoliBot-F.Cu.dxf
10
47.1548718418693
20
33.135
30
1.00185334963068e-029
11
47.4322718418693
21
33.034
31
1.00185334963068e-029
  0
LINE
 8
LoliBot-F.Cu.dxf
10
44.8922718418692
20
33.034
30
1.00185334963068e-029
11
45.1184718418693
21
32.844
31
1.00185334963068e-029
  0
LINE
 8
LoliBot-F.Cu.dxf
10
45.1184718418693
20
32.844
30
1.00185334963068e-029
11
45.2660718418692
21
32.589
31
1.00185334963068e-029
  0
LINE
 8
LoliBot-F.Cu.dxf
10
45.2660718418692
20
32.589
30
1.00185334963068e-029
11
45.3172718418693
21
32.298
31
1.00185334963068e-029
  0
LINE
 8
LoliBot-F.Cu.dxf
10
45.3172718418693
20
32.298
30
1.00185334963068e-029
11
45.2660718418692
21
32.001
31
1.00185334963068e-029
  0
LINE
 8
LoliBot-F.Cu.dxf
10
45.2660718418692
20
32.001
30
1.00185334963068e-029
11
45.1184718418693
21
31.745
31
1.00185334963068e-029
  0
LINE
 8
LoliBot-F.Cu.dxf
10
45.1184718418693
20
31.745
30
1.00185334963068e-029
11
44.8922718418692
21
31.555
31
1.00185334963068e-029
  0
LINE
 8
LoliBot-F.Cu.dxf
10
44.8922718418692
20
31.555
30
1.00185334963068e-029
11
44.6176718418693
21
31.455
31
1.00185334963068e-029
  0
LINE
 8
LoliBot-F.Cu.dxf
10
44.3676718418693
20
31.454
30
1.00185334963068e-029
11
44.3196718418693
21
31.454
31
1.00185334963068e-029
  0
LINE
 8
LoliBot-F.Cu.dxf
10
44.3196718418693
20
31.454
30
1.00185334963068e-029
11
44.0422718418693
21
31.555
31
1.00185334963068e-029
  0
LINE
 8
LoliBot-F.Cu.dxf
10
44.0422718418693
20
31.555
30
1.00185334963068e-029
11
43.8161718418692
21
31.745
31
1.00185334963068e-029
  0
LINE
 8
LoliBot-F.Cu.dxf
10
43.8161718418692
20
31.745
30
1.00185334963068e-029
11
43.6685718418693
21
32.001
31
1.00185334963068e-029
  0
LINE
 8
LoliBot-F.Cu.dxf
10
43.6685718418693
20
32.001
30
1.00185334963068e-029
11
43.6172718418693
21
32.291
31
1.00185334963068e-029
  0
LINE
 8
LoliBot-F.Cu.dxf
10
43.6172718418693
20
32.291
30
1.00185334963068e-029
11
43.6685718418693
21
32.589
31
1.00185334963068e-029
  0
LINE
 8
LoliBot-F.Cu.dxf
10
43.6685718418693
20
32.589
30
1.00185334963068e-029
11
43.8161718418692
21
32.844
31
1.00185334963068e-029
  0
LINE
 8
LoliBot-F.Cu.dxf
10
43.8161718418692
20
32.844
30
1.00185334963068e-029
11
44.0422718418693
21
33.034
31
1.00185334963068e-029
  0
LINE
 8
LoliBot-F.Cu.dxf
10
44.0422718418693
20
33.034
30
1.00185334963068e-029
11
44.3196718418693
21
33.135
31
1.00185334963068e-029
  0
LINE
 8
LoliBot-F.Cu.dxf
10
44.3196718418693
20
33.135
30
1.00185334963068e-029
11
44.6148718418692
21
33.135
31
1.00185334963068e-029
  0
LINE
 8
LoliBot-F.Cu.dxf
10
44.6148718418692
20
33.135
30
1.00185334963068e-029
11
44.8922718418692
21
33.034
31
1.00185334963068e-029
  0
LINE
 8
LoliBot-F.Cu.dxf
10
40.0862718418693
20
26.061
30
1.00185334963068e-029
11
40.2063718418692
21
25.853
31
1.00185334963068e-029
  0
LINE
 8
LoliBot-F.Cu.dxf
10
40.2063718418692
20
25.853
30
1.00185334963068e-029
11
40.2575718418692
21
25.562
31
1.00185334963068e-029
  0
LINE
 8
LoliBot-F.Cu.dxf
10
40.2575718418692
20
25.562
30
1.00185334963068e-029
11
40.2063718418692
21
25.265
31
1.00185334963068e-029
  0
LINE
 8
LoliBot-F.Cu.dxf
10
40.2063718418692
20
25.265
30
1.00185334963068e-029
11
40.0587718418692
21
25.009
31
1.00185334963068e-029
  0
LINE
 8
LoliBot-F.Cu.dxf
10
40.0587718418692
20
25.009
30
1.00185334963068e-029
11
39.8325718418693
21
24.819
31
1.00185334963068e-029
  0
LINE
 8
LoliBot-F.Cu.dxf
10
39.8325718418693
20
24.819
30
1.00185334963068e-029
11
39.5551718418693
21
24.718
31
1.00185334963068e-029
  0
LINE
 8
LoliBot-F.Cu.dxf
10
39.5551718418693
20
24.718
30
1.00185334963068e-029
11
39.2599718418692
21
24.718
31
1.00185334963068e-029
  0
LINE
 8
LoliBot-F.Cu.dxf
10
39.2599718418692
20
24.718
30
1.00185334963068e-029
11
38.9825718418692
21
24.819
31
1.00185334963068e-029
  0
LINE
 8
LoliBot-F.Cu.dxf
10
38.9825718418692
20
24.819
30
1.00185334963068e-029
11
38.7564718418692
21
25.009
31
1.00185334963068e-029
  0
LINE
 8
LoliBot-F.Cu.dxf
10
38.7564718418692
20
25.009
30
1.00185334963068e-029
11
38.6088718418692
21
25.265
31
1.00185334963068e-029
  0
LINE
 8
LoliBot-F.Cu.dxf
10
38.6088718418692
20
25.265
30
1.00185334963068e-029
11
38.5575718418692
21
25.555
31
1.00185334963068e-029
  0
LINE
 8
LoliBot-F.Cu.dxf
10
38.5575718418692
20
25.555
30
1.00185334963068e-029
11
38.6088718418692
21
25.853
31
1.00185334963068e-029
  0
LINE
 8
LoliBot-F.Cu.dxf
10
38.6088718418692
20
25.853
30
1.00185334963068e-029
11
38.7564718418692
21
26.108
31
1.00185334963068e-029
  0
LINE
 8
LoliBot-F.Cu.dxf
10
38.7564718418692
20
26.108
30
1.00185334963068e-029
11
38.9825718418692
21
26.298
31
1.00185334963068e-029
  0
LINE
 8
LoliBot-F.Cu.dxf
10
38.9825718418692
20
26.298
30
1.00185334963068e-029
11
39.2599718418692
21
26.399
31
1.00185334963068e-029
  0
LINE
 8
LoliBot-F.Cu.dxf
10
39.2599718418692
20
26.399
30
1.00185334963068e-029
11
39.5551718418693
21
26.399
31
1.00185334963068e-029
  0
LINE
 8
LoliBot-F.Cu.dxf
10
39.5551718418693
20
26.399
30
1.00185334963068e-029
11
39.8325718418693
21
26.298
31
1.00185334963068e-029
  0
LINE
 8
LoliBot-F.Cu.dxf
10
39.8325718418693
20
26.298
30
1.00185334963068e-029
11
39.9074718418692
21
26.235
31
1.00185334963068e-029
  0
LINE
 8
LoliBot-F.Cu.dxf
10
42.6262718418692
20
26.061
30
1.00185334963068e-029
11
42.7463718418692
21
25.853
31
1.00185334963068e-029
  0
LINE
 8
LoliBot-F.Cu.dxf
10
42.7463718418692
20
25.853
30
1.00185334963068e-029
11
42.7975718418692
21
25.562
31
1.00185334963068e-029
  0
LINE
 8
LoliBot-F.Cu.dxf
10
42.7975718418692
20
25.562
30
1.00185334963068e-029
11
42.7463718418692
21
25.265
31
1.00185334963068e-029
  0
LINE
 8
LoliBot-F.Cu.dxf
10
42.7463718418692
20
25.265
30
1.00185334963068e-029
11
42.5987718418693
21
25.009
31
1.00185334963068e-029
  0
LINE
 8
LoliBot-F.Cu.dxf
10
42.5987718418693
20
25.009
30
1.00185334963068e-029
11
42.3725718418692
21
24.819
31
1.00185334963068e-029
  0
LINE
 8
LoliBot-F.Cu.dxf
10
42.3725718418692
20
24.819
30
1.00185334963068e-029
11
42.0951718418692
21
24.718
31
1.00185334963068e-029
  0
LINE
 8
LoliBot-F.Cu.dxf
10
42.0951718418692
20
24.718
30
1.00185334963068e-029
11
41.7999718418693
21
24.718
31
1.00185334963068e-029
  0
LINE
 8
LoliBot-F.Cu.dxf
10
41.7999718418693
20
24.718
30
1.00185334963068e-029
11
41.5225718418693
21
24.819
31
1.00185334963068e-029
  0
LINE
 8
LoliBot-F.Cu.dxf
10
41.5225718418693
20
24.819
30
1.00185334963068e-029
11
41.2964718418692
21
25.009
31
1.00185334963068e-029
  0
LINE
 8
LoliBot-F.Cu.dxf
10
41.2964718418692
20
25.009
30
1.00185334963068e-029
11
41.1488718418693
21
25.265
31
1.00185334963068e-029
  0
LINE
 8
LoliBot-F.Cu.dxf
10
41.1488718418693
20
25.265
30
1.00185334963068e-029
11
41.0975718418693
21
25.555
31
1.00185334963068e-029
  0
LINE
 8
LoliBot-F.Cu.dxf
10
41.0975718418693
20
25.555
30
1.00185334963068e-029
11
41.1488718418693
21
25.853
31
1.00185334963068e-029
  0
LINE
 8
LoliBot-F.Cu.dxf
10
41.1488718418693
20
25.853
30
1.00185334963068e-029
11
41.2964718418692
21
26.108
31
1.00185334963068e-029
  0
LINE
 8
LoliBot-F.Cu.dxf
10
41.2964718418692
20
26.108
30
1.00185334963068e-029
11
41.5225718418693
21
26.298
31
1.00185334963068e-029
  0
LINE
 8
LoliBot-F.Cu.dxf
10
41.5225718418693
20
26.298
30
1.00185334963068e-029
11
41.7999718418693
21
26.399
31
1.00185334963068e-029
  0
LINE
 8
LoliBot-F.Cu.dxf
10
41.7999718418693
20
26.399
30
1.00185334963068e-029
11
42.0951718418692
21
26.399
31
1.00185334963068e-029
  0
LINE
 8
LoliBot-F.Cu.dxf
10
42.0951718418692
20
26.399
30
1.00185334963068e-029
11
42.3725718418692
21
26.298
31
1.00185334963068e-029
  0
LINE
 8
LoliBot-F.Cu.dxf
10
42.3725718418692
20
26.298
30
1.00185334963068e-029
11
42.4474718418693
21
26.235
31
1.00185334963068e-029
  0
LINE
 8
LoliBot-F.Cu.dxf
10
45.1662718418692
20
26.061
30
1.00185334963068e-029
11
45.2863718418692
21
25.853
31
1.00185334963068e-029
  0
LINE
 8
LoliBot-F.Cu.dxf
10
45.2863718418692
20
25.853
30
1.00185334963068e-029
11
45.3375718418692
21
25.562
31
1.00185334963068e-029
  0
LINE
 8
LoliBot-F.Cu.dxf
10
45.3375718418692
20
25.562
30
1.00185334963068e-029
11
45.2863718418692
21
25.265
31
1.00185334963068e-029
  0
LINE
 8
LoliBot-F.Cu.dxf
10
45.2863718418692
20
25.265
30
1.00185334963068e-029
11
45.1387718418693
21
25.009
31
1.00185334963068e-029
  0
LINE
 8
LoliBot-F.Cu.dxf
10
45.1387718418693
20
25.009
30
1.00185334963068e-029
11
44.9125718418693
21
24.819
31
1.00185334963068e-029
  0
LINE
 8
LoliBot-F.Cu.dxf
10
44.9125718418693
20
24.819
30
1.00185334963068e-029
11
44.6351718418693
21
24.718
31
1.00185334963068e-029
  0
LINE
 8
LoliBot-F.Cu.dxf
10
44.6351718418693
20
24.718
30
1.00185334963068e-029
11
44.3399718418693
21
24.718
31
1.00185334963068e-029
  0
LINE
 8
LoliBot-F.Cu.dxf
10
44.3399718418693
20
24.718
30
1.00185334963068e-029
11
44.0625718418693
21
24.819
31
1.00185334963068e-029
  0
LINE
 8
LoliBot-F.Cu.dxf
10
44.0625718418693
20
24.819
30
1.00185334963068e-029
11
43.8364718418692
21
25.009
31
1.00185334963068e-029
  0
LINE
 8
LoliBot-F.Cu.dxf
10
43.8364718418692
20
25.009
30
1.00185334963068e-029
11
43.6888718418693
21
25.265
31
1.00185334963068e-029
  0
LINE
 8
LoliBot-F.Cu.dxf
10
43.6888718418693
20
25.265
30
1.00185334963068e-029
11
43.6375718418692
21
25.555
31
1.00185334963068e-029
  0
LINE
 8
LoliBot-F.Cu.dxf
10
43.6375718418692
20
25.555
30
1.00185334963068e-029
11
43.6888718418693
21
25.853
31
1.00185334963068e-029
  0
LINE
 8
LoliBot-F.Cu.dxf
10
43.6888718418693
20
25.853
30
1.00185334963068e-029
11
43.8364718418692
21
26.108
31
1.00185334963068e-029
  0
LINE
 8
LoliBot-F.Cu.dxf
10
43.8364718418692
20
26.108
30
1.00185334963068e-029
11
44.0625718418693
21
26.298
31
1.00185334963068e-029
  0
LINE
 8
LoliBot-F.Cu.dxf
10
44.0625718418693
20
26.298
30
1.00185334963068e-029
11
44.3399718418693
21
26.399
31
1.00185334963068e-029
  0
LINE
 8
LoliBot-F.Cu.dxf
10
44.3399718418693
20
26.399
30
1.00185334963068e-029
11
44.6351718418693
21
26.399
31
1.00185334963068e-029
  0
LINE
 8
LoliBot-F.Cu.dxf
10
44.6351718418693
20
26.399
30
1.00185334963068e-029
11
44.9125718418693
21
26.298
31
1.00185334963068e-029
  0
LINE
 8
LoliBot-F.Cu.dxf
10
44.9125718418693
20
26.298
30
1.00185334963068e-029
11
44.9874718418693
21
26.235
31
1.00185334963068e-029
  0
LINE
 8
LoliBot-F.Cu.dxf
10
42.3725718418692
20
23.758
30
1.00185334963068e-029
11
42.5987718418693
21
23.568
31
1.00185334963068e-029
  0
LINE
 8
LoliBot-F.Cu.dxf
10
42.5987718418693
20
23.568
30
1.00185334963068e-029
11
42.7463718418692
21
23.313
31
1.00185334963068e-029
  0
LINE
 8
LoliBot-F.Cu.dxf
10
42.7463718418692
20
23.313
30
1.00185334963068e-029
11
42.7975718418692
21
23.022
31
1.00185334963068e-029
  0
LINE
 8
LoliBot-F.Cu.dxf
10
42.7975718418692
20
23.022
30
1.00185334963068e-029
11
42.7463718418692
21
22.725
31
1.00185334963068e-029
  0
LINE
 8
LoliBot-F.Cu.dxf
10
42.7463718418692
20
22.725
30
1.00185334963068e-029
11
42.5987718418693
21
22.469
31
1.00185334963068e-029
  0
LINE
 8
LoliBot-F.Cu.dxf
10
42.5987718418693
20
22.469
30
1.00185334963068e-029
11
42.3725718418692
21
22.279
31
1.00185334963068e-029
  0
LINE
 8
LoliBot-F.Cu.dxf
10
42.3725718418692
20
22.279
30
1.00185334963068e-029
11
42.0951718418692
21
22.178
31
1.00185334963068e-029
  0
LINE
 8
LoliBot-F.Cu.dxf
10
41.8225718418692
20
22.178
30
1.00185334963068e-029
11
41.5225718418693
21
22.279
31
1.00185334963068e-029
  0
LINE
 8
LoliBot-F.Cu.dxf
10
41.5225718418693
20
22.279
30
1.00185334963068e-029
11
41.2964718418692
21
22.469
31
1.00185334963068e-029
  0
LINE
 8
LoliBot-F.Cu.dxf
10
41.2964718418692
20
22.469
30
1.00185334963068e-029
11
41.1488718418693
21
22.725
31
1.00185334963068e-029
  0
LINE
 8
LoliBot-F.Cu.dxf
10
41.1488718418693
20
22.725
30
1.00185334963068e-029
11
41.0975718418693
21
23.015
31
1.00185334963068e-029
  0
LINE
 8
LoliBot-F.Cu.dxf
10
41.0975718418693
20
23.015
30
1.00185334963068e-029
11
41.1488718418693
21
23.313
31
1.00185334963068e-029
  0
LINE
 8
LoliBot-F.Cu.dxf
10
41.1488718418693
20
23.313
30
1.00185334963068e-029
11
41.2964718418692
21
23.568
31
1.00185334963068e-029
  0
LINE
 8
LoliBot-F.Cu.dxf
10
41.2964718418692
20
23.568
30
1.00185334963068e-029
11
41.5225718418693
21
23.758
31
1.00185334963068e-029
  0
LINE
 8
LoliBot-F.Cu.dxf
10
41.5225718418693
20
23.758
30
1.00185334963068e-029
11
41.7999718418693
21
23.859
31
1.00185334963068e-029
  0
LINE
 8
LoliBot-F.Cu.dxf
10
41.7999718418693
20
23.859
30
1.00185334963068e-029
11
42.0951718418692
21
23.859
31
1.00185334963068e-029
  0
LINE
 8
LoliBot-F.Cu.dxf
10
42.0951718418692
20
23.859
30
1.00185334963068e-029
11
42.3725718418692
21
23.758
31
1.00185334963068e-029
  0
LINE
 8
LoliBot-F.Cu.dxf
10
44.9125718418693
20
23.758
30
1.00185334963068e-029
11
45.1387718418693
21
23.568
31
1.00185334963068e-029
  0
LINE
 8
LoliBot-F.Cu.dxf
10
45.1387718418693
20
23.568
30
1.00185334963068e-029
11
45.2863718418692
21
23.313
31
1.00185334963068e-029
  0
LINE
 8
LoliBot-F.Cu.dxf
10
45.2863718418692
20
23.313
30
1.00185334963068e-029
11
45.3375718418692
21
23.022
31
1.00185334963068e-029
  0
LINE
 8
LoliBot-F.Cu.dxf
10
45.3375718418692
20
23.022
30
1.00185334963068e-029
11
45.2863718418692
21
22.725
31
1.00185334963068e-029
  0
LINE
 8
LoliBot-F.Cu.dxf
10
45.2863718418692
20
22.725
30
1.00185334963068e-029
11
45.1387718418693
21
22.469
31
1.00185334963068e-029
  0
LINE
 8
LoliBot-F.Cu.dxf
10
45.1387718418693
20
22.469
30
1.00185334963068e-029
11
44.9125718418693
21
22.279
31
1.00185334963068e-029
  0
LINE
 8
LoliBot-F.Cu.dxf
10
44.9125718418693
20
22.279
30
1.00185334963068e-029
11
44.6351718418693
21
22.178
31
1.00185334963068e-029
  0
LINE
 8
LoliBot-F.Cu.dxf
10
44.3625718418692
20
22.178
30
1.00185334963068e-029
11
44.0625718418693
21
22.279
31
1.00185334963068e-029
  0
LINE
 8
LoliBot-F.Cu.dxf
10
44.0625718418693
20
22.279
30
1.00185334963068e-029
11
43.8364718418692
21
22.469
31
1.00185334963068e-029
  0
LINE
 8
LoliBot-F.Cu.dxf
10
43.8364718418692
20
22.469
30
1.00185334963068e-029
11
43.6888718418693
21
22.725
31
1.00185334963068e-029
  0
LINE
 8
LoliBot-F.Cu.dxf
10
43.6888718418693
20
22.725
30
1.00185334963068e-029
11
43.6375718418692
21
23.015
31
1.00185334963068e-029
  0
LINE
 8
LoliBot-F.Cu.dxf
10
43.6375718418692
20
23.015
30
1.00185334963068e-029
11
43.6888718418693
21
23.313
31
1.00185334963068e-029
  0
LINE
 8
LoliBot-F.Cu.dxf
10
43.6888718418693
20
23.313
30
1.00185334963068e-029
11
43.8364718418692
21
23.568
31
1.00185334963068e-029
  0
LINE
 8
LoliBot-F.Cu.dxf
10
43.8364718418692
20
23.568
30
1.00185334963068e-029
11
44.0625718418693
21
23.758
31
1.00185334963068e-029
  0
LINE
 8
LoliBot-F.Cu.dxf
10
44.0625718418693
20
23.758
30
1.00185334963068e-029
11
44.3399718418693
21
23.859
31
1.00185334963068e-029
  0
LINE
 8
LoliBot-F.Cu.dxf
10
44.3399718418693
20
23.859
30
1.00185334963068e-029
11
44.6351718418693
21
23.859
31
1.00185334963068e-029
  0
LINE
 8
LoliBot-F.Cu.dxf
10
44.6351718418693
20
23.859
30
1.00185334963068e-029
11
44.9125718418693
21
23.758
31
1.00185334963068e-029
  0
LINE
 8
LoliBot-F.Cu.dxf
10
47.4525718418693
20
23.758
30
1.00185334963068e-029
11
47.6787718418692
21
23.568
31
1.00185334963068e-029
  0
LINE
 8
LoliBot-F.Cu.dxf
10
47.6787718418692
20
23.568
30
1.00185334963068e-029
11
47.8263718418692
21
23.313
31
1.00185334963068e-029
  0
LINE
 8
LoliBot-F.Cu.dxf
10
47.8263718418692
20
23.313
30
1.00185334963068e-029
11
47.8775718418692
21
23.022
31
1.00185334963068e-029
  0
LINE
 8
LoliBot-F.Cu.dxf
10
47.8775718418692
20
23.022
30
1.00185334963068e-029
11
47.8263718418692
21
22.725
31
1.00185334963068e-029
  0
LINE
 8
LoliBot-F.Cu.dxf
10
47.8263718418692
20
22.725
30
1.00185334963068e-029
11
47.6787718418692
21
22.469
31
1.00185334963068e-029
  0
LINE
 8
LoliBot-F.Cu.dxf
10
47.6787718418692
20
22.469
30
1.00185334963068e-029
11
47.4525718418693
21
22.279
31
1.00185334963068e-029
  0
LINE
 8
LoliBot-F.Cu.dxf
10
47.4525718418693
20
22.279
30
1.00185334963068e-029
11
47.1751718418693
21
22.178
31
1.00185334963068e-029
  0
LINE
 8
LoliBot-F.Cu.dxf
10
46.9025718418692
20
22.178
30
1.00185334963068e-029
11
46.6025718418692
21
22.279
31
1.00185334963068e-029
  0
LINE
 8
LoliBot-F.Cu.dxf
10
46.6025718418692
20
22.279
30
1.00185334963068e-029
11
46.3764718418692
21
22.469
31
1.00185334963068e-029
  0
LINE
 8
LoliBot-F.Cu.dxf
10
46.3764718418692
20
22.469
30
1.00185334963068e-029
11
46.2288718418693
21
22.725
31
1.00185334963068e-029
  0
LINE
 8
LoliBot-F.Cu.dxf
10
46.2288718418693
20
22.725
30
1.00185334963068e-029
11
46.1775718418693
21
23.015
31
1.00185334963068e-029
  0
LINE
 8
LoliBot-F.Cu.dxf
10
46.1775718418693
20
23.015
30
1.00185334963068e-029
11
46.2288718418693
21
23.313
31
1.00185334963068e-029
  0
LINE
 8
LoliBot-F.Cu.dxf
10
46.2288718418693
20
23.313
30
1.00185334963068e-029
11
46.3764718418692
21
23.568
31
1.00185334963068e-029
  0
LINE
 8
LoliBot-F.Cu.dxf
10
46.3764718418692
20
23.568
30
1.00185334963068e-029
11
46.6025718418692
21
23.758
31
1.00185334963068e-029
  0
LINE
 8
LoliBot-F.Cu.dxf
10
46.6025718418692
20
23.758
30
1.00185334963068e-029
11
46.8799718418692
21
23.859
31
1.00185334963068e-029
  0
LINE
 8
LoliBot-F.Cu.dxf
10
46.8799718418692
20
23.859
30
1.00185334963068e-029
11
47.1751718418693
21
23.859
31
1.00185334963068e-029
  0
LINE
 8
LoliBot-F.Cu.dxf
10
47.1751718418693
20
23.859
30
1.00185334963068e-029
11
47.4525718418693
21
23.758
31
1.00185334963068e-029
  0
LINE
 8
LoliBot-F.Cu.dxf
10
38.5575718418692
20
23.819
30
1.00185334963068e-029
11
38.5575718418692
21
23.869
31
1.00185334963068e-029
  0
LINE
 8
LoliBot-F.Cu.dxf
10
38.5575718418692
20
23.869
30
1.00185334963068e-029
11
40.2575718418692
21
23.869
31
1.00185334963068e-029
  0
LINE
 8
LoliBot-F.Cu.dxf
10
40.2575718418692
20
23.869
30
1.00185334963068e-029
11
40.2575718418692
21
22.169
31
1.00185334963068e-029
  0
LINE
 8
LoliBot-F.Cu.dxf
10
40.2575718418692
20
22.169
30
1.00185334963068e-029
11
40.2075718418693
21
22.169
31
1.00185334963068e-029
  0
LINE
 8
LoliBot-F.Cu.dxf
10
69.6419718418693
20
25.226
30
1.00185334963068e-029
11
69.6419718418693
21
25.276
31
1.00185334963068e-029
  0
LINE
 8
LoliBot-F.Cu.dxf
10
69.6419718418693
20
25.276
30
1.00185334963068e-029
11
71.3419718418693
21
25.276
31
1.00185334963068e-029
  0
LINE
 8
LoliBot-F.Cu.dxf
10
71.3419718418693
20
25.276
30
1.00185334963068e-029
11
71.3419718418693
21
23.576
31
1.00185334963068e-029
  0
LINE
 8
LoliBot-F.Cu.dxf
10
71.3419718418693
20
23.576
30
1.00185334963068e-029
11
69.6419718418693
21
23.576
31
1.00185334963068e-029
  0
LINE
 8
LoliBot-F.Cu.dxf
10
69.6419718418693
20
23.576
30
1.00185334963068e-029
11
69.6419718418693
21
23.626
31
1.00185334963068e-029
  0
LINE
 8
LoliBot-F.Cu.dxf
10
47.4525718418693
20
26.298
30
1.00185334963068e-029
11
47.6787718418692
21
26.108
31
1.00185334963068e-029
  0
LINE
 8
LoliBot-F.Cu.dxf
10
47.6787718418692
20
26.108
30
1.00185334963068e-029
11
47.8263718418692
21
25.853
31
1.00185334963068e-029
  0
LINE
 8
LoliBot-F.Cu.dxf
10
47.8263718418692
20
25.853
30
1.00185334963068e-029
11
47.8775718418692
21
25.562
31
1.00185334963068e-029
  0
LINE
 8
LoliBot-F.Cu.dxf
10
47.8775718418692
20
25.562
30
1.00185334963068e-029
11
47.8263718418692
21
25.265
31
1.00185334963068e-029
  0
LINE
 8
LoliBot-F.Cu.dxf
10
47.8263718418692
20
25.265
30
1.00185334963068e-029
11
47.6787718418692
21
25.009
31
1.00185334963068e-029
  0
LINE
 8
LoliBot-F.Cu.dxf
10
47.6787718418692
20
25.009
30
1.00185334963068e-029
11
47.4525718418693
21
24.819
31
1.00185334963068e-029
  0
LINE
 8
LoliBot-F.Cu.dxf
10
47.4525718418693
20
24.819
30
1.00185334963068e-029
11
47.1751718418693
21
24.718
31
1.00185334963068e-029
  0
LINE
 8
LoliBot-F.Cu.dxf
10
47.1751718418693
20
24.718
30
1.00185334963068e-029
11
46.8799718418692
21
24.718
31
1.00185334963068e-029
  0
LINE
 8
LoliBot-F.Cu.dxf
10
46.8799718418692
20
24.718
30
1.00185334963068e-029
11
46.6025718418692
21
24.819
31
1.00185334963068e-029
  0
LINE
 8
LoliBot-F.Cu.dxf
10
46.6025718418692
20
24.819
30
1.00185334963068e-029
11
46.3764718418692
21
25.009
31
1.00185334963068e-029
  0
LINE
 8
LoliBot-F.Cu.dxf
10
46.3764718418692
20
25.009
30
1.00185334963068e-029
11
46.2288718418693
21
25.265
31
1.00185334963068e-029
  0
LINE
 8
LoliBot-F.Cu.dxf
10
46.2288718418693
20
25.265
30
1.00185334963068e-029
11
46.1775718418693
21
25.555
31
1.00185334963068e-029
  0
LINE
 8
LoliBot-F.Cu.dxf
10
46.1775718418693
20
25.555
30
1.00185334963068e-029
11
46.2288718418693
21
25.853
31
1.00185334963068e-029
  0
LINE
 8
LoliBot-F.Cu.dxf
10
46.2288718418693
20
25.853
30
1.00185334963068e-029
11
46.3764718418692
21
26.108
31
1.00185334963068e-029
  0
LINE
 8
LoliBot-F.Cu.dxf
10
46.3764718418692
20
26.108
30
1.00185334963068e-029
11
46.6025718418692
21
26.298
31
1.00185334963068e-029
  0
LINE
 8
LoliBot-F.Cu.dxf
10
46.6025718418692
20
26.298
30
1.00185334963068e-029
11
46.8799718418692
21
26.399
31
1.00185334963068e-029
  0
LINE
 8
LoliBot-F.Cu.dxf
10
46.8799718418692
20
26.399
30
1.00185334963068e-029
11
47.1751718418693
21
26.399
31
1.00185334963068e-029
  0
LINE
 8
LoliBot-F.Cu.dxf
10
47.1751718418693
20
26.399
30
1.00185334963068e-029
11
47.4525718418693
21
26.298
31
1.00185334963068e-029
  0
LINE
 8
LoliBot-F.Cu.dxf
10
71.2919718418692
20
27.224
30
1.00185334963068e-029
11
71.3319718418692
21
27.113
31
1.00185334963068e-029
  0
LINE
 8
LoliBot-F.Cu.dxf
10
71.3319718418692
20
27.113
30
1.00185334963068e-029
11
71.3319718418692
21
26.818
31
1.00185334963068e-029
  0
LINE
 8
LoliBot-F.Cu.dxf
10
71.3319718418692
20
26.818
30
1.00185334963068e-029
11
71.2319718418692
21
26.541
31
1.00185334963068e-029
  0
LINE
 8
LoliBot-F.Cu.dxf
10
71.2319718418692
20
26.541
30
1.00185334963068e-029
11
71.0419718418692
21
26.315
31
1.00185334963068e-029
  0
LINE
 8
LoliBot-F.Cu.dxf
10
71.0419718418692
20
26.315
30
1.00185334963068e-029
11
70.7859718418692
21
26.167
31
1.00185334963068e-029
  0
LINE
 8
LoliBot-F.Cu.dxf
10
70.7859718418692
20
26.167
30
1.00185334963068e-029
11
70.4949718418693
21
26.116
31
1.00185334963068e-029
  0
LINE
 8
LoliBot-F.Cu.dxf
10
70.4949718418693
20
26.116
30
1.00185334963068e-029
11
70.1979718418693
21
26.167
31
1.00185334963068e-029
  0
LINE
 8
LoliBot-F.Cu.dxf
10
70.1979718418693
20
26.167
30
1.00185334963068e-029
11
69.9429718418693
21
26.315
31
1.00185334963068e-029
  0
LINE
 8
LoliBot-F.Cu.dxf
10
69.9429718418693
20
26.315
30
1.00185334963068e-029
11
69.7529718418693
21
26.541
31
1.00185334963068e-029
  0
LINE
 8
LoliBot-F.Cu.dxf
10
69.7529718418693
20
26.541
30
1.00185334963068e-029
11
69.6519718418692
21
26.818
31
1.00185334963068e-029
  0
LINE
 8
LoliBot-F.Cu.dxf
10
69.6519718418692
20
26.818
30
1.00185334963068e-029
11
69.6519718418692
21
27.113
31
1.00185334963068e-029
  0
LINE
 8
LoliBot-F.Cu.dxf
10
69.6519718418692
20
27.113
30
1.00185334963068e-029
11
69.6919718418692
21
27.224
31
1.00185334963068e-029
  0
LINE
 8
LoliBot-F.Cu.dxf
10
38.5372718418692
20
32.695
30
1.00185334963068e-029
11
38.5372718418692
21
33.145
31
1.00185334963068e-029
  0
LINE
 8
LoliBot-F.Cu.dxf
10
38.5372718418692
20
33.145
30
1.00185334963068e-029
11
40.2372718418692
21
33.145
31
1.00185334963068e-029
  0
LINE
 8
LoliBot-F.Cu.dxf
10
40.2372718418692
20
33.145
30
1.00185334963068e-029
11
40.2372718418692
21
31.445
31
1.00185334963068e-029
  0
LINE
 8
LoliBot-F.Cu.dxf
10
40.2372718418692
20
31.445
30
1.00185334963068e-029
11
38.5372718418692
21
31.445
31
1.00185334963068e-029
  0
LINE
 8
LoliBot-F.Cu.dxf
10
38.5372718418692
20
31.445
30
1.00185334963068e-029
11
38.5372718418692
21
31.895
31
1.00185334963068e-029
  0
LINE
 8
LoliBot-F.Cu.dxf
10
42.3522718418693
20
33.034
30
1.00185334963068e-029
11
42.5784718418692
21
32.844
31
1.00185334963068e-029
  0
LINE
 8
LoliBot-F.Cu.dxf
10
42.5784718418692
20
32.844
30
1.00185334963068e-029
11
42.7260718418692
21
32.589
31
1.00185334963068e-029
  0
LINE
 8
LoliBot-F.Cu.dxf
10
42.7260718418692
20
32.589
30
1.00185334963068e-029
11
42.7772718418693
21
32.298
31
1.00185334963068e-029
  0
LINE
 8
LoliBot-F.Cu.dxf
10
42.7772718418693
20
32.298
30
1.00185334963068e-029
11
42.7260718418692
21
32.001
31
1.00185334963068e-029
  0
LINE
 8
LoliBot-F.Cu.dxf
10
42.7260718418692
20
32.001
30
1.00185334963068e-029
11
42.5784718418692
21
31.745
31
1.00185334963068e-029
  0
LINE
 8
LoliBot-F.Cu.dxf
10
42.5784718418692
20
31.745
30
1.00185334963068e-029
11
42.3522718418693
21
31.555
31
1.00185334963068e-029
  0
LINE
 8
LoliBot-F.Cu.dxf
10
42.3522718418693
20
31.555
30
1.00185334963068e-029
11
42.0748718418693
21
31.454
31
1.00185334963068e-029
  0
LINE
 8
LoliBot-F.Cu.dxf
10
42.0748718418693
20
31.454
30
1.00185334963068e-029
11
41.7796718418692
21
31.454
31
1.00185334963068e-029
  0
LINE
 8
LoliBot-F.Cu.dxf
10
41.7796718418692
20
31.454
30
1.00185334963068e-029
11
41.5022718418692
21
31.555
31
1.00185334963068e-029
  0
LINE
 8
LoliBot-F.Cu.dxf
10
41.5022718418692
20
31.555
30
1.00185334963068e-029
11
41.2761718418693
21
31.745
31
1.00185334963068e-029
  0
LINE
 8
LoliBot-F.Cu.dxf
10
41.2761718418693
20
31.745
30
1.00185334963068e-029
11
41.1285718418692
21
32.001
31
1.00185334963068e-029
  0
LINE
 8
LoliBot-F.Cu.dxf
10
41.1285718418692
20
32.001
30
1.00185334963068e-029
11
41.0772718418692
21
32.291
31
1.00185334963068e-029
  0
LINE
 8
LoliBot-F.Cu.dxf
10
41.0772718418692
20
32.291
30
1.00185334963068e-029
11
41.1285718418692
21
32.589
31
1.00185334963068e-029
  0
LINE
 8
LoliBot-F.Cu.dxf
10
41.1285718418692
20
32.589
30
1.00185334963068e-029
11
41.2761718418693
21
32.844
31
1.00185334963068e-029
  0
LINE
 8
LoliBot-F.Cu.dxf
10
41.2761718418693
20
32.844
30
1.00185334963068e-029
11
41.5022718418692
21
33.034
31
1.00185334963068e-029
  0
LINE
 8
LoliBot-F.Cu.dxf
10
41.5022718418692
20
33.034
30
1.00185334963068e-029
11
41.7796718418692
21
33.135
31
1.00185334963068e-029
  0
LINE
 8
LoliBot-F.Cu.dxf
10
41.7796718418692
20
33.135
30
1.00185334963068e-029
11
42.0748718418693
21
33.135
31
1.00185334963068e-029
  0
LINE
 8
LoliBot-F.Cu.dxf
10
42.0748718418693
20
33.135
30
1.00185334963068e-029
11
42.3522718418693
21
33.034
31
1.00185334963068e-029
  0
LINE
 8
LoliBot-F.Cu.dxf
10
42.3522718418693
20
35.574
30
1.00185334963068e-029
11
42.5784718418692
21
35.384
31
1.00185334963068e-029
  0
LINE
 8
LoliBot-F.Cu.dxf
10
42.5784718418692
20
35.384
30
1.00185334963068e-029
11
42.7260718418692
21
35.129
31
1.00185334963068e-029
  0
LINE
 8
LoliBot-F.Cu.dxf
10
42.7260718418692
20
35.129
30
1.00185334963068e-029
11
42.7772718418693
21
34.838
31
1.00185334963068e-029
  0
LINE
 8
LoliBot-F.Cu.dxf
10
42.7772718418693
20
34.838
30
1.00185334963068e-029
11
42.7260718418692
21
34.541
31
1.00185334963068e-029
  0
LINE
 8
LoliBot-F.Cu.dxf
10
42.7260718418692
20
34.541
30
1.00185334963068e-029
11
42.5784718418692
21
34.285
31
1.00185334963068e-029
  0
LINE
 8
LoliBot-F.Cu.dxf
10
42.5784718418692
20
34.285
30
1.00185334963068e-029
11
42.3522718418693
21
34.095
31
1.00185334963068e-029
  0
LINE
 8
LoliBot-F.Cu.dxf
10
42.3522718418693
20
34.095
30
1.00185334963068e-029
11
42.0748718418693
21
33.994
31
1.00185334963068e-029
  0
LINE
 8
LoliBot-F.Cu.dxf
10
42.0748718418693
20
33.994
30
1.00185334963068e-029
11
41.7796718418692
21
33.994
31
1.00185334963068e-029
  0
LINE
 8
LoliBot-F.Cu.dxf
10
41.7796718418692
20
33.994
30
1.00185334963068e-029
11
41.5022718418692
21
34.095
31
1.00185334963068e-029
  0
LINE
 8
LoliBot-F.Cu.dxf
10
41.5022718418692
20
34.095
30
1.00185334963068e-029
11
41.2761718418693
21
34.285
31
1.00185334963068e-029
  0
LINE
 8
LoliBot-F.Cu.dxf
10
41.2761718418693
20
34.285
30
1.00185334963068e-029
11
41.1285718418692
21
34.541
31
1.00185334963068e-029
  0
LINE
 8
LoliBot-F.Cu.dxf
10
41.1285718418692
20
34.541
30
1.00185334963068e-029
11
41.0772718418692
21
34.831
31
1.00185334963068e-029
  0
LINE
 8
LoliBot-F.Cu.dxf
10
41.0772718418692
20
34.831
30
1.00185334963068e-029
11
41.1285718418692
21
35.129
31
1.00185334963068e-029
  0
LINE
 8
LoliBot-F.Cu.dxf
10
41.1285718418692
20
35.129
30
1.00185334963068e-029
11
41.2761718418693
21
35.384
31
1.00185334963068e-029
  0
LINE
 8
LoliBot-F.Cu.dxf
10
41.2761718418693
20
35.384
30
1.00185334963068e-029
11
41.5022718418692
21
35.574
31
1.00185334963068e-029
  0
LINE
 8
LoliBot-F.Cu.dxf
10
41.5022718418692
20
35.574
30
1.00185334963068e-029
11
41.7796718418692
21
35.675
31
1.00185334963068e-029
  0
LINE
 8
LoliBot-F.Cu.dxf
10
41.7796718418692
20
35.675
30
1.00185334963068e-029
11
42.0748718418693
21
35.675
31
1.00185334963068e-029
  0
LINE
 8
LoliBot-F.Cu.dxf
10
42.0748718418693
20
35.675
30
1.00185334963068e-029
11
42.3522718418693
21
35.574
31
1.00185334963068e-029
  0
LINE
 8
LoliBot-F.Cu.dxf
10
74.5169718418693
20
69.8894
30
1.00185334963068e-029
11
74.5169718418693
21
69.8394
31
1.00185334963068e-029
  0
LINE
 8
LoliBot-F.Cu.dxf
10
72.8169718418692
20
71.5394
30
1.00185334963068e-029
11
74.5169718418693
21
71.5394
31
1.00185334963068e-029
  0
LINE
 8
LoliBot-F.Cu.dxf
10
72.8169718418692
20
69.8394
30
1.00185334963068e-029
11
72.8169718418692
21
71.5394
31
1.00185334963068e-029
  0
LINE
 8
LoliBot-F.Cu.dxf
10
74.5169718418693
20
69.8394
30
1.00185334963068e-029
11
72.8169718418692
21
69.8394
31
1.00185334963068e-029
  0
LINE
 8
LoliBot-F.Cu.dxf
10
74.5169718418693
20
71.5394
30
1.00185334963068e-029
11
74.5169718418693
21
71.4894
31
1.00185334963068e-029
  0
LINE
 8
LoliBot-F.Cu.dxf
10
74.2169718418693
20
73.8805
30
1.00185334963068e-029
11
74.4069718418692
21
73.6544
31
1.00185334963068e-029
  0
LINE
 8
LoliBot-F.Cu.dxf
10
74.4069718418692
20
73.6544
30
1.00185334963068e-029
11
74.5069718418692
21
73.377
31
1.00185334963068e-029
  0
LINE
 8
LoliBot-F.Cu.dxf
10
74.4069718418692
20
72.8044
30
1.00185334963068e-029
11
74.2169718418693
21
72.5782
31
1.00185334963068e-029
  0
LINE
 8
LoliBot-F.Cu.dxf
10
74.5069718418692
20
73.377
30
1.00185334963068e-029
11
74.5069718418692
21
73.0818
31
1.00185334963068e-029
  0
LINE
 8
LoliBot-F.Cu.dxf
10
73.3799718418692
20
74.0294
30
1.00185334963068e-029
11
73.6639718418692
21
74.0794
31
1.00185334963068e-029
  0
LINE
 8
LoliBot-F.Cu.dxf
10
73.9609718418693
20
74.0281
30
1.00185334963068e-029
11
74.2169718418693
21
73.8805
31
1.00185334963068e-029
  0
LINE
 8
LoliBot-F.Cu.dxf
10
73.6699718418692
20
72.3794
30
1.00185334963068e-029
11
73.3799718418692
21
72.4294
31
1.00185334963068e-029
  0
LINE
 8
LoliBot-F.Cu.dxf
10
73.6639718418692
20
74.0794
30
1.00185334963068e-029
11
73.9609718418693
21
74.0281
31
1.00185334963068e-029
  0
LINE
 8
LoliBot-F.Cu.dxf
10
74.5069718418692
20
73.0818
30
1.00185334963068e-029
11
74.4069718418692
21
72.8044
31
1.00185334963068e-029
  0
LINE
 8
LoliBot-F.Cu.dxf
10
73.3799718418692
20
72.4294
30
1.00185334963068e-029
11
72.5199718418693
21
72.4294
31
1.00185334963068e-029
  0
LINE
 8
LoliBot-F.Cu.dxf
10
73.9609718418693
20
72.4306
30
1.00185334963068e-029
11
73.6699718418692
21
72.3794
31
1.00185334963068e-029
  0
LINE
 8
LoliBot-F.Cu.dxf
10
74.2169718418693
20
72.5782
30
1.00185334963068e-029
11
73.9609718418693
21
72.4306
31
1.00185334963068e-029
 0
ENDSEC
 0
EOF
