 0
SECTION
 2
ENTITIES
  0
POLYLINE
 8
Group#8
 66
     1
70
    8
 10
0.0
 20
 0.0
 30
0.0
  0
VERTEX
  8
MY3DLAYER
10
2.1797627823638
20
89.6306667563399
30
-1.95194554963785e-014
 70
     32
  0
VERTEX
  8
MY3DLAYER
10
2.1797627823638
20
91.4000000000001
30
-1.95194554963785e-014
 70
     32
  0
VERTEX
  8
MY3DLAYER
10
3.4797627823638
20
91.4000000000001
30
-1.81094722551046e-014
 70
     32
  0
VERTEX
  8
MY3DLAYER
10
3.4797627823638
20
95.3000000000001
30
-1.66994890138306e-014
 70
     32
  0
VERTEX
  8
MY3DLAYER
10
5.47976278236379
20
95.3000000000001
30
-1.66994890138306e-014
 70
     32
  0
VERTEX
  8
MY3DLAYER
10
5.47976278236379
20
96.5
30
-8.94458118682392e-015
 70
     32
  0
VERTEX
  8
MY3DLAYER
10
5.78424151889208
20
96.8746918432662
30
-3.64305353365825e-012
 70
     32
  0
VERTEX
  8
MY3DLAYER
10
6.11672952723614
20
97.2247675532426
30
-6.93693064173161e-012
 70
     32
  0
VERTEX
  8
MY3DLAYER
10
6.47524348190799
20
97.5481388919751
30
-9.87092758649381e-012
 70
     32
  0
VERTEX
  8
MY3DLAYER
10
6.85764480994786
20
97.8428769158563
30
-1.24275427715679e-011
 70
     32
  0
VERTEX
  8
MY3DLAYER
10
7.26165244773388
20
98.1072234819748
30
-1.45915257219525e-011
 70
     32
  0
VERTEX
  8
MY3DLAYER
10
7.68485644776342
20
98.3396017356197
30
-1.63499680546883e-011
 70
     32
  0
VERTEX
  8
MY3DLAYER
10
8.12473235424016
20
98.5386255163831
30
-1.76923804787029e-011
 70
     32
  0
VERTEX
  8
MY3DLAYER
10
8.57865626171495
20
98.7031076267504
30
-1.86107553645204e-011
 70
     32
  0
VERTEX
  8
MY3DLAYER
10
9.04392046695431
20
98.832066913857
30
-1.90996145106032e-011
 70
     32
  0
VERTEX
  8
MY3DLAYER
10
9.51774962067118
20
98.9247341221673
30
-1.91560418213926e-011
 70
     32
  0
VERTEX
  8
MY3DLAYER
10
9.99731728277173
20
98.980556482163
30
-1.87797007021216e-011
 70
     32
  0
VERTEX
  8
MY3DLAYER
10
10.4797627823638
20
98.9992010076714
30
-1.79728360666376e-011
 70
     32
  0
VERTEX
  8
MY3DLAYER
10
18.9797627823638
20
98.9992010076646
30
-6.829606324913e-015
 70
     32
  0
VERTEX
  8
MY3DLAYER
10
18.9797627823638
20
100.0
30
-2.23394219789264e-014
 70
     32
  0
VERTEX
  8
MY3DLAYER
10
23.4797627823638
20
100.0
30
-9.64957280746089e-015
 70
     32
  0
VERTEX
  8
MY3DLAYER
10
23.4797627823638
20
102.5
30
-6.829606324913e-015
 70
     32
  0
VERTEX
  8
MY3DLAYER
10
25.6797627823637
20
102.5
30
1.57301255354702e-014
 70
     32
  0
VERTEX
  8
MY3DLAYER
10
25.6797627823637
20
101.8
30
1.29101590529223e-014
 70
     32
  0
VERTEX
  8
MY3DLAYER
10
24.4797627823637
20
101.8
30
4.45025960527859e-015
 70
     32
  0
VERTEX
  8
MY3DLAYER
10
24.4797627823637
20
100.0
30
4.45025960527859e-015
 70
     32
  0
VERTEX
  8
MY3DLAYER
10
53.1797627823638
20
100.0
30
2.20309881456749e-016
 70
     32
  0
VERTEX
  8
MY3DLAYER
10
53.1797627823638
20
109.0
30
3.04027636400465e-015
 70
     32
  0
VERTEX
  8
MY3DLAYER
10
58.3797627823638
20
109.0
30
3.04027636400465e-015
 70
     32
  0
VERTEX
  8
MY3DLAYER
10
58.3797627823638
20
100.0
30
2.20309881456749e-016
 70
     32
  0
VERTEX
  8
MY3DLAYER
10
67.3797627823638
20
100.0
30
-2.23394219789264e-014
 70
     32
  0
VERTEX
  8
MY3DLAYER
10
67.3797627823638
20
91.75
30
-9.64957280746089e-015
 70
     32
  0
VERTEX
  8
MY3DLAYER
10
72.3797627823638
20
91.75
30
-5.41962308363905e-015
 70
     32
  0
VERTEX
  8
MY3DLAYER
10
72.3797627823638
20
89.25
30
-5.41962308363905e-015
 70
     32
  0
VERTEX
  8
MY3DLAYER
10
67.3797627823638
20
89.25
30
-1.24695392900088e-014
 70
     32
  0
VERTEX
  8
MY3DLAYER
10
67.3797627823638
20
81.0
30
-8.94458118682392e-015
 70
     32
  0
VERTEX
  8
MY3DLAYER
10
58.3797627823638
20
81.0
30
-8.23958956618694e-015
 70
     32
  0
VERTEX
  8
MY3DLAYER
10
58.3797627823638
20
72.0
30
-1.38795225312827e-014
 70
     32
  0
VERTEX
  8
MY3DLAYER
10
53.1797627823638
20
72.0
30
-1.38795225312827e-014
 70
     32
  0
VERTEX
  8
MY3DLAYER
10
53.1797627823638
20
81.0
30
-8.23958956618694e-015
 70
     32
  0
VERTEX
  8
MY3DLAYER
10
46.7797627823638
20
81.0
30
-8.23958956618694e-015
 70
     32
  0
VERTEX
  8
MY3DLAYER
10
46.7797627823638
20
79.0
30
-1.10595560487348e-014
 70
     32
  0
VERTEX
  8
MY3DLAYER
10
42.7797627823638
20
79.0
30
-1.10595560487348e-014
 70
     32
  0
VERTEX
  8
MY3DLAYER
10
42.7797627823638
20
81.0
30
-8.23958956618694e-015
 70
     32
  0
VERTEX
  8
MY3DLAYER
10
24.4797627823638
20
81.0
30
-1.52895057725567e-014
 70
     32
  0
VERTEX
  8
MY3DLAYER
10
24.4797627823638
20
79.2
30
-1.52895057725567e-014
 70
     32
  0
VERTEX
  8
MY3DLAYER
10
25.6797627823638
20
79.2
30
-1.52895057725567e-014
 70
     32
  0
VERTEX
  8
MY3DLAYER
10
25.6797627823638
20
78.5
30
-1.52895057725567e-014
 70
     32
  0
VERTEX
  8
MY3DLAYER
10
23.4797627823638
20
78.5
30
-1.52895057725567e-014
 70
     32
  0
VERTEX
  8
MY3DLAYER
10
23.4797627823638
20
81.0
30
-1.52895057725567e-014
 70
     32
  0
VERTEX
  8
MY3DLAYER
10
18.9797627823638
20
81.0
30
-3.22093046678441e-014
 70
     32
  0
VERTEX
  8
MY3DLAYER
10
18.9797627823638
20
82.0000000000001
30
-2.23394219789264e-014
 70
     32
  0
VERTEX
  8
MY3DLAYER
10
10.4797627823638
20
82.0007989923355
30
-2.23394219789264e-014
 70
     32
  0
VERTEX
  8
MY3DLAYER
10
10.0094081316869
20
82.0691702787562
30
-1.65543739310019e-014
 70
     32
  0
VERTEX
  8
MY3DLAYER
10
9.54381065420132
20
82.1647062362761
30
-1.17721993193425e-014
 70
     32
  0
VERTEX
  8
MY3DLAYER
10
9.08453784633003
20
82.287085230267
30
-8.00899797687874e-015
 70
     32
  0
VERTEX
  8
MY3DLAYER
10
8.63313591164655
20
82.4358952554138
30
-5.27743922620296e-015
 70
     32
  0
VERTEX
  8
MY3DLAYER
10
8.19112455537299
20
82.6106353227864
30
-3.58671922661239e-015
 70
     32
  0
VERTEX
  8
MY3DLAYER
10
7.75999186808841
20
82.810717146486
30
-2.94253001400039e-015
 70
     32
  0
VERTEX
  8
MY3DLAYER
10
7.34118931587205
20
83.0354671241885
30
-3.34704033784151e-015
 70
     32
  0
VERTEX
  8
MY3DLAYER
10
6.93612685374787
20
83.284128604917
30
-4.79888835981772e-015
 70
     32
  0
VERTEX
  8
MY3DLAYER
10
6.54616817888172
20
83.5558644364093
30
-7.29318623862498e-015
 70
     32
  0
VERTEX
  8
MY3DLAYER
10
6.17262613951165
20
83.8497597835032
30
-1.0821536585554e-014
 70
     32
  0
VERTEX
  8
MY3DLAYER
10
5.81675831506807
20
84.1648252080518
30
-1.53720607354082e-014
 70
     32
  0
VERTEX
  8
MY3DLAYER
10
5.47976278236379
20
84.5
30
-2.09294387376525e-014
 70
     32
  0
VERTEX
  8
MY3DLAYER
10
5.47976278236379
20
87.5000000000001
30
-1.89466498045417e-015
 70
     32
  0
VERTEX
  8
MY3DLAYER
10
3.4797627823638
20
87.5000000000001
30
-1.95194554963785e-014
 70
     32
  0
VERTEX
  8
MY3DLAYER
10
3.4797627823638
20
89.6306667563399
30
-1.95194554963785e-014
 70
     32
  0
VERTEX
  8
MY3DLAYER
10
2.1797627823638
20
89.6306667563399
30
-1.95194554963785e-014
 70
     32
  0
SEQEND
  0
POLYLINE
 8
Group#8
 66
     1
70
    8
 10
0.0
 20
 0.0
 30
0.0
  0
VERTEX
  8
MY3DLAYER
10
2.17976278236129
20
10.3693332436746
30
4.785948147996e-012
 70
     32
  0
VERTEX
  8
MY3DLAYER
10
2.1797627823608
20
8.60000000001448
30
4.785948147996e-012
 70
     32
  0
VERTEX
  8
MY3DLAYER
10
3.4797627823608
20
8.60000000001411
30
4.78735813123728e-012
 70
     32
  0
VERTEX
  8
MY3DLAYER
10
3.47976278235968
20
4.70000000001412
30
4.78876811447855e-012
 70
     32
  0
VERTEX
  8
MY3DLAYER
10
5.47976278235967
20
4.70000000001355
30
4.78876811447855e-012
 70
     32
  0
VERTEX
  8
MY3DLAYER
10
5.47976278235934
20
3.50000000001356
30
4.79652302230556e-012
 70
     32
  0
VERTEX
  8
MY3DLAYER
10
5.78424151888751
20
3.12530815674729
30
1.16241406983413e-012
 70
     32
  0
VERTEX
  8
MY3DLAYER
10
6.11672952723147
20
2.77523244677081
30
-2.13146303823923e-012
 70
     32
  0
VERTEX
  8
MY3DLAYER
10
6.47524348190323
20
2.45186110803826
30
-5.06545998300143e-012
 70
     32
  0
VERTEX
  8
MY3DLAYER
10
6.85764480994302
20
2.15712308415692
30
-7.62207516807553e-012
 70
     32
  0
VERTEX
  8
MY3DLAYER
10
7.26165244772896
20
1.89277651803833
30
-9.78605811846011e-012
 70
     32
  0
VERTEX
  8
MY3DLAYER
10
7.68485644775844
20
1.66039826439328
30
-1.1544500451196e-011
 70
     32
  0
VERTEX
  8
MY3DLAYER
10
8.12473235423512
20
1.46137448362981
30
-1.28869128752105e-011
 70
     32
  0
VERTEX
  8
MY3DLAYER
10
8.57865626170986
20
1.29689237326239
30
-1.3805287761028e-011
 70
     32
  0
VERTEX
  8
MY3DLAYER
10
9.04392046694919
20
1.16793308615555
30
-1.42941469071108e-011
 70
     32
  0
VERTEX
  8
MY3DLAYER
10
9.51774962066604
20
1.07526587784518
30
-1.43505742179002e-011
 70
     32
  0
VERTEX
  8
MY3DLAYER
10
9.99731728276656
20
1.01944351784935
30
-1.39742330986292e-011
 70
     32
  0
VERTEX
  8
MY3DLAYER
10
10.4797627823586
20
1.00079899234081
30
-1.31673684631452e-011
 70
     32
  0
VERTEX
  8
MY3DLAYER
10
18.9797627823586
20
1.0007989923452
30
4.79863799716747e-012
 70
     32
  0
VERTEX
  8
MY3DLAYER
10
18.9797627823583
20
9.74298419720299e-012
30
4.78312818151346e-012
 70
     32
  0
VERTEX
  8
MY3DLAYER
10
23.4797627823583
20
8.45848946440242e-012
30
4.79581803068492e-012
 70
     32
  0
VERTEX
  8
MY3DLAYER
10
23.4797627823576
20
-2.49999999999154
30
4.79863799716747e-012
 70
     32
  0
VERTEX
  8
MY3DLAYER
10
25.6797627823575
20
-2.49999999999217
30
4.82119772902785e-012
 70
     32
  0
VERTEX
  8
MY3DLAYER
10
25.6797627823577
20
-1.79999999999217
30
4.8183777625453e-012
 70
     32
  0
VERTEX
  8
MY3DLAYER
10
24.4797627823578
20
-1.79999999999183
30
4.80991786309766e-012
 70
     32
  0
VERTEX
  8
MY3DLAYER
10
24.4797627823583
20
8.17367284966508e-012
30
4.80991786309766e-012
 70
     32
  0
VERTEX
  8
MY3DLAYER
10
53.1797627823583
20
-4.22994972382185e-015
30
4.80568791337384e-012
 70
     32
  0
VERTEX
  8
MY3DLAYER
10
53.1797627823558
20
-9.0
30
4.80850787985639e-012
 70
     32
  0
VERTEX
  8
MY3DLAYER
10
58.3797627823558
20
-9.00000000000149
30
4.80850787985639e-012
 70
     32
  0
VERTEX
  8
MY3DLAYER
10
58.3797627823583
20
-1.48612233630274e-012
30
4.80568791337384e-012
 70
     32
  0
VERTEX
  8
MY3DLAYER
10
67.3797627823583
20
-4.04947186893878e-012
30
4.78312818151346e-012
 70
     32
  0
VERTEX
  8
MY3DLAYER
10
67.3797627823607
20
8.24999999999594
30
4.79581803068492e-012
 70
     32
  0
VERTEX
  8
MY3DLAYER
10
72.3797627823607
20
8.24999999999452
30
4.80004798040874e-012
 70
     32
  0
VERTEX
  8
MY3DLAYER
10
72.3797627823614
20
10.7499999999945
30
4.80004798040874e-012
 70
     32
  0
VERTEX
  8
MY3DLAYER
10
67.3797627823614
20
10.749999999996
30
4.79299806420237e-012
 70
     32
  0
VERTEX
  8
MY3DLAYER
10
67.3797627823638
20
18.999999999996
30
4.79652302230556e-012
 70
     32
  0
VERTEX
  8
MY3DLAYER
10
58.3797627823638
20
18.9999999999985
30
4.79722801392619e-012
 70
     32
  0
VERTEX
  8
MY3DLAYER
10
58.3797627823663
20
27.9999999999985
30
4.7915880809611e-012
 70
     32
  0
VERTEX
  8
MY3DLAYER
10
53.1797627823663
20
28.0
30
4.7915880809611e-012
 70
     32
  0
VERTEX
  8
MY3DLAYER
10
53.1797627823638
20
19.0
30
4.79722801392619e-012
 70
     32
  0
VERTEX
  8
MY3DLAYER
10
46.7797627823638
20
19.0000000000018
30
4.79722801392619e-012
 70
     32
  0
VERTEX
  8
MY3DLAYER
10
46.7797627823643
20
21.0000000000018
30
4.79440804744365e-012
 70
     32
  0
VERTEX
  8
MY3DLAYER
10
42.7797627823643
20
21.000000000003
30
4.79440804744365e-012
 70
     32
  0
VERTEX
  8
MY3DLAYER
10
42.7797627823638
20
19.000000000003
30
4.79722801392619e-012
 70
     32
  0
VERTEX
  8
MY3DLAYER
10
24.4797627823638
20
19.0000000000082
30
4.79017809771982e-012
 70
     32
  0
VERTEX
  8
MY3DLAYER
10
24.4797627823643
20
20.8000000000082
30
4.79017809771982e-012
 70
     32
  0
VERTEX
  8
MY3DLAYER
10
25.6797627823643
20
20.8000000000078
30
4.79017809771982e-012
 70
     32
  0
VERTEX
  8
MY3DLAYER
10
25.6797627823645
20
21.5000000000078
30
4.79017809771982e-012
 70
     32
  0
VERTEX
  8
MY3DLAYER
10
23.4797627823645
20
21.5000000000085
30
4.79017809771982e-012
 70
     32
  0
VERTEX
  8
MY3DLAYER
10
23.4797627823638
20
19.0000000000085
30
4.79017809771982e-012
 70
     32
  0
VERTEX
  8
MY3DLAYER
10
18.9797627823637
20
19.0000000000097
30
4.77325829882454e-012
 70
     32
  0
VERTEX
  8
MY3DLAYER
10
18.9797627823635
20
18.0000000000097
30
4.78312818151346e-012
 70
     32
  0
VERTEX
  8
MY3DLAYER
10
10.4797627823635
20
17.9992010076767
30
4.78312818151346e-012
 70
     32
  0
VERTEX
  8
MY3DLAYER
10
10.0094081316865
20
17.9308297212562
30
4.78891322956138e-012
 70
     32
  0
VERTEX
  8
MY3DLAYER
10
9.54381065420095
20
17.8352937637363
30
4.79369540417304e-012
 70
     32
  0
VERTEX
  8
MY3DLAYER
10
9.08453784632962
20
17.7129147697456
30
4.7974586055155e-012
 70
     32
  0
VERTEX
  8
MY3DLAYER
10
8.6331359116461
20
17.564104744599
30
4.80019016426618e-012
 70
     32
  0
VERTEX
  8
MY3DLAYER
10
8.19112455537249
20
17.3893646772264
30
4.80188088426577e-012
 70
     32
  0
VERTEX
  8
MY3DLAYER
10
7.75999186808786
20
17.1892828535269
30
4.80252507347838e-012
 70
     32
  0
VERTEX
  8
MY3DLAYER
10
7.34118931587143
20
16.9645328758246
30
4.80212056315454e-012
 70
     32
  0
VERTEX
  8
MY3DLAYER
10
6.93612685374718
20
16.7158713950962
30
4.80066871513256e-012
 70
     32
  0
VERTEX
  8
MY3DLAYER
10
6.54616817888095
20
16.444135563604
30
4.79817441725376e-012
 70
     32
  0
VERTEX
  8
MY3DLAYER
10
6.17262613951079
20
16.1502402165102
30
4.79464606690683e-012
 70
     32
  0
VERTEX
  8
MY3DLAYER
10
5.81675831506712
20
15.8351747919617
30
4.79009554275697e-012
 70
     32
  0
VERTEX
  8
MY3DLAYER
10
5.47976278236276
20
15.5000000000136
30
4.78453816475473e-012
 70
     32
  0
VERTEX
  8
MY3DLAYER
10
5.4797627823619
20
12.5000000000135
30
4.80357293851193e-012
 70
     32
  0
VERTEX
  8
MY3DLAYER
10
3.4797627823619
20
12.5000000000141
30
4.785948147996e-012
 70
     32
  0
VERTEX
  8
MY3DLAYER
10
3.47976278236129
20
10.3693332436743
30
4.785948147996e-012
 70
     32
  0
VERTEX
  8
MY3DLAYER
10
2.17976278236129
20
10.3693332436746
30
4.785948147996e-012
 70
     32
  0
SEQEND
 0
ENDSEC
 0
EOF
