 0
SECTION
 2
ENTITIES
  0
POLYLINE
 8
Group#8
 66
     1
70
    8
 10
0.0
 20
 0.0
 30
0.0
  0
VERTEX
  8
MY3DLAYER
10
36.65
20
10.3693332436601
30
-27.3532854733882
 70
     32
  0
VERTEX
  8
MY3DLAYER
10
36.65
20
8.59999999999995
30
-27.3532854733882
 70
     32
  0
VERTEX
  8
MY3DLAYER
10
35.35
20
8.59999999999995
30
-27.3532854733882
 70
     32
  0
VERTEX
  8
MY3DLAYER
10
35.35
20
4.69999999999996
30
-27.3532854733882
 70
     32
  0
VERTEX
  8
MY3DLAYER
10
33.35
20
4.69999999999996
30
-27.3532854733882
 70
     32
  0
VERTEX
  8
MY3DLAYER
10
33.35
20
3.49999999999998
30
-27.3532854733882
 70
     32
  0
VERTEX
  8
MY3DLAYER
10
33.0455212634717
20
3.12530815673379
30
-27.3532854733918
 70
     32
  0
VERTEX
  8
MY3DLAYER
10
32.7130332551276
20
2.77523244675741
30
-27.3532854733951
 70
     32
  0
VERTEX
  8
MY3DLAYER
10
32.3545193004558
20
2.45186110802496
30
-27.353285473398
 70
     32
  0
VERTEX
  8
MY3DLAYER
10
31.9721179724159
20
2.15712308414373
30
-27.3532854734006
 70
     32
  0
VERTEX
  8
MY3DLAYER
10
31.5681103346299
20
1.89277651802525
30
-27.3532854734027
 70
     32
  0
VERTEX
  8
MY3DLAYER
10
31.1449063346003
20
1.66039826438032
30
-27.3532854734045
 70
     32
  0
VERTEX
  8
MY3DLAYER
10
30.7050304281236
20
1.46137448361697
30
-27.3532854734058
 70
     32
  0
VERTEX
  8
MY3DLAYER
10
30.2511065206488
20
1.29689237324968
30
-27.3532854734068
 70
     32
  0
VERTEX
  8
MY3DLAYER
10
29.7858423154095
20
1.16793308614298
30
-27.3532854734072
 70
     32
  0
VERTEX
  8
MY3DLAYER
10
29.3120131616926
20
1.07526587783274
30
-27.3532854734073
 70
     32
  0
VERTEX
  8
MY3DLAYER
10
28.832445499592
20
1.01944351783705
30
-27.3532854734069
 70
     32
  0
VERTEX
  8
MY3DLAYER
10
28.35
20
1.00079899232865
30
-27.3532854734061
 70
     32
  0
VERTEX
  8
MY3DLAYER
10
19.85
20
1.00079899233545
30
-27.3532854733882
 70
     32
  0
VERTEX
  8
MY3DLAYER
10
19.85
20
1.40998324127395e-015
30
-27.3532854733882
 70
     32
  0
VERTEX
  8
MY3DLAYER
10
15.35
20
0.0
30
-27.3532854733882
 70
     32
  0
VERTEX
  8
MY3DLAYER
10
15.35
20
-2.5
30
-27.3532854733882
 70
     32
  0
VERTEX
  8
MY3DLAYER
10
13.1500000000001
20
-2.5
30
-27.3532854733881
 70
     32
  0
VERTEX
  8
MY3DLAYER
10
13.1500000000001
20
-1.8
30
-27.3532854733881
 70
     32
  0
VERTEX
  8
MY3DLAYER
10
14.35
20
-1.8
30
-27.3532854733881
 70
     32
  0
VERTEX
  8
MY3DLAYER
10
14.35
20
0.0
30
-27.3532854733881
 70
     32
  0
VERTEX
  8
MY3DLAYER
10
-14.35
20
0.0
30
-27.3532854733881
 70
     32
  0
VERTEX
  8
MY3DLAYER
10
-14.35
20
-9.0
30
-27.3532854733881
 70
     32
  0
VERTEX
  8
MY3DLAYER
10
-19.55
20
-9.0
30
-27.3532854733881
 70
     32
  0
VERTEX
  8
MY3DLAYER
10
-19.55
20
0.0
30
-27.3532854733881
 70
     32
  0
VERTEX
  8
MY3DLAYER
10
-28.55
20
1.40998324127395e-015
30
-27.3532854733882
 70
     32
  0
VERTEX
  8
MY3DLAYER
10
-28.55
20
8.24999999999999
30
-27.3532854733882
 70
     32
  0
VERTEX
  8
MY3DLAYER
10
-33.55
20
8.24999999999999
30
-27.3532854733882
 70
     32
  0
VERTEX
  8
MY3DLAYER
10
-33.55
20
10.75
30
-27.3532854733882
 70
     32
  0
VERTEX
  8
MY3DLAYER
10
-28.55
20
10.75
30
-27.3532854733882
 70
     32
  0
VERTEX
  8
MY3DLAYER
10
-28.55
20
19.0
30
-27.3532854733882
 70
     32
  0
VERTEX
  8
MY3DLAYER
10
-19.55
20
19.0
30
-27.3532854733882
 70
     32
  0
VERTEX
  8
MY3DLAYER
10
-19.55
20
28.0
30
-27.3532854733882
 70
     32
  0
VERTEX
  8
MY3DLAYER
10
-14.35
20
28.0
30
-27.3532854733882
 70
     32
  0
VERTEX
  8
MY3DLAYER
10
-14.35
20
19.0
30
-27.3532854733882
 70
     32
  0
VERTEX
  8
MY3DLAYER
10
-7.95000000000004
20
19.0
30
-27.3532854733882
 70
     32
  0
VERTEX
  8
MY3DLAYER
10
-7.95000000000004
20
21.0
30
-27.3532854733882
 70
     32
  0
VERTEX
  8
MY3DLAYER
10
-3.95000000000003
20
21.0
30
-27.3532854733882
 70
     32
  0
VERTEX
  8
MY3DLAYER
10
-3.95000000000003
20
19.0
30
-27.3532854733882
 70
     32
  0
VERTEX
  8
MY3DLAYER
10
14.35
20
19.0
30
-27.3532854733882
 70
     32
  0
VERTEX
  8
MY3DLAYER
10
14.35
20
20.8
30
-27.3532854733882
 70
     32
  0
VERTEX
  8
MY3DLAYER
10
13.15
20
20.8
30
-27.3532854733882
 70
     32
  0
VERTEX
  8
MY3DLAYER
10
13.15
20
21.5
30
-27.3532854733882
 70
     32
  0
VERTEX
  8
MY3DLAYER
10
15.35
20
21.5
30
-27.3532854733882
 70
     32
  0
VERTEX
  8
MY3DLAYER
10
15.35
20
19.0
30
-27.3532854733882
 70
     32
  0
VERTEX
  8
MY3DLAYER
10
19.85
20
19.0
30
-27.3532854733882
 70
     32
  0
VERTEX
  8
MY3DLAYER
10
19.85
20
18.0
30
-27.3532854733882
 70
     32
  0
VERTEX
  8
MY3DLAYER
10
28.35
20
17.9992010076645
30
-27.3532854733882
 70
     32
  0
VERTEX
  8
MY3DLAYER
10
28.8203546506769
20
17.9308297212439
30
-27.3532854733882
 70
     32
  0
VERTEX
  8
MY3DLAYER
10
29.2859521281624
20
17.8352937637239
30
-27.3532854733882
 70
     32
  0
VERTEX
  8
MY3DLAYER
10
29.7452249360337
20
17.7129147697331
30
-27.3532854733882
 70
     32
  0
VERTEX
  8
MY3DLAYER
10
30.1966268707172
20
17.5641047445863
30
-27.3532854733882
 70
     32
  0
VERTEX
  8
MY3DLAYER
10
30.6386382269908
20
17.3893646772136
30
-27.3532854733882
 70
     32
  0
VERTEX
  8
MY3DLAYER
10
31.0697709142754
20
17.189282853514
30
-27.3532854733882
 70
     32
  0
VERTEX
  8
MY3DLAYER
10
31.4885734664917
20
16.9645328758115
30
-27.3532854733882
 70
     32
  0
VERTEX
  8
MY3DLAYER
10
31.8936359286159
20
16.715871395083
30
-27.3532854733882
 70
     32
  0
VERTEX
  8
MY3DLAYER
10
32.283594603482
20
16.4441355635907
30
-27.3532854733882
 70
     32
  0
VERTEX
  8
MY3DLAYER
10
32.6571366428521
20
16.1502402164968
30
-27.3532854733882
 70
     32
  0
VERTEX
  8
MY3DLAYER
10
33.0130044672957
20
15.8351747919482
30
-27.3532854733882
 70
     32
  0
VERTEX
  8
MY3DLAYER
10
33.35
20
15.5
30
-27.3532854733882
 70
     32
  0
VERTEX
  8
MY3DLAYER
10
33.35
20
12.5
30
-27.3532854733882
 70
     32
  0
VERTEX
  8
MY3DLAYER
10
35.35
20
12.5
30
-27.3532854733882
 70
     32
  0
VERTEX
  8
MY3DLAYER
10
35.35
20
10.3693332436601
30
-27.3532854733882
 70
     32
  0
VERTEX
  8
MY3DLAYER
10
36.65
20
10.3693332436601
30
-27.3532854733882
 70
     32
  0
SEQEND
 0
ENDSEC
 0
EOF
